<?xml version="1.0" encoding="UTF-8"?>
<!-- Generator: visioncortex VTracer 0.6.4 -->
<svg version="1.1" xmlns="http://www.w3.org/2000/svg" width="176" height="169">
<path d="M0 0 C0.99 0 1.98 0 3 0 C3.224 1.283 3.449 2.565 3.68 3.887 C4.905 9.407 7.357 13.924 10.125 18.812 C11.052 20.461 11.971 22.113 12.883 23.77 C13.289 24.487 13.695 25.205 14.114 25.945 C15 28 15 28 15 32 C8.5 36 8.5 36 4 36 C3.67 38.97 3.34 41.94 3 45 C1.23 45.195 -0.541 45.381 -2.312 45.562 C-3.792 45.719 -3.792 45.719 -5.301 45.879 C-8 46 -8 46 -11 45 C-10.342 48.048 -10.342 48.048 -8.258 49.062 C-7.554 49.372 -6.85 49.681 -6.125 50 C-3.167 51.31 -1.177 52.591 1 55 C0.34 56.65 -0.32 58.3 -1 60 C-1.66 60 -2.32 60 -3 60 C-2.948 60.996 -2.948 60.996 -2.895 62.012 C-2.614 71.147 -2.614 71.147 -6 75 C-9.958 78.188 -13.005 78.363 -18 78 C-18.982 77.665 -18.982 77.665 -19.984 77.324 C-22.043 76.792 -22.043 76.792 -23.887 77.941 C-28.493 82.088 -29.509 85.231 -29.938 91.438 C-29.99 93.624 -30.021 95.813 -30 98 C-30.99 98 -31.98 98 -33 98 C-35.142 93.716 -34.708 88.626 -34 84 C-32.076 80.287 -29.735 77.153 -27 74 C-28.114 73.732 -29.227 73.464 -30.375 73.188 C-34 72 -34 72 -36 69 C-31.43 67.582 -28.933 68.55 -24.625 70.438 C-17.987 73.161 -17.987 73.161 -11 73 C-8.773 71.343 -8.08 70.455 -7.594 67.695 C-7.563 66.847 -7.532 65.999 -7.5 65.125 C-7.216 60.998 -6.579 58.363 -4 55 C-4.887 54.752 -5.774 54.505 -6.688 54.25 C-10.257 52.903 -12.415 51.813 -15 49 C-15 46.69 -15 44.38 -15 42 C-10.38 41.67 -5.76 41.34 -1 41 C-0.67 38.36 -0.34 35.72 0 33 C3.3 32.34 6.6 31.68 10 31 C7.867 25.422 5.595 20.189 2.75 14.938 C-0.008 9.581 -0.596 5.961 0 0 Z " fill="#000000" transform="translate(75,46)"/>
<path d="M0 0 C4.109 2.612 7.686 5.145 9.391 9.832 C10.922 16.735 10.727 22.543 7.391 28.832 C5.395 31.87 3.269 34.81 1.059 37.696 C-1.898 41.596 -3.75 45.308 -5.609 49.832 C-7.922 52.631 -9.635 54.422 -12.984 55.832 C-17.586 55.832 -21.258 54.14 -24.547 50.957 C-25.817 48.417 -25.843 46.636 -25.609 43.832 C-23.734 44.02 -23.734 44.02 -21.609 44.832 C-21.321 45.657 -21.032 46.482 -20.734 47.332 C-19.826 50.123 -19.826 50.123 -16.797 50.957 C-13.521 51.119 -13.521 51.119 -11.047 49.02 C-8.331 45.899 -6.752 42.245 -5.004 38.527 C-3.075 34.8 -0.664 31.515 1.84 28.156 C5.006 23.411 5.89 19.53 5.391 13.832 C3.939 10.237 2.461 7.262 -0.609 4.832 C-6.13 2.992 -11.561 3.035 -16.984 5.145 C-20.828 9.079 -22.083 13.625 -23.609 18.832 C-24.599 18.502 -25.589 18.172 -26.609 17.832 C-27.069 12.085 -26.205 9.326 -22.609 4.832 C-16.948 -1.742 -7.985 -3.574 0 0 Z " fill="#000000" transform="translate(134.609375,69.16796875)"/>
<path d="M0 0 C3.328 1.953 4.712 3.025 5.812 6.75 C5.874 7.493 5.936 8.235 6 9 C4.68 9.33 3.36 9.66 2 10 C1.34 8.35 0.68 6.7 0 5 C-2.31 5 -4.62 5 -7 5 C-7.998 7.695 -8.114 8.722 -7 11.438 C-5.823 14.455 -6.067 15.945 -7 19 C-7.33 19.33 -7.66 19.66 -8 20 C-8.041 22.333 -8.042 24.667 -8 27 C-9.32 27 -10.64 27 -12 27 C-13.381 24.237 -13.191 22.053 -13 19 C-12.34 18.34 -11.68 17.68 -11 17 C-11.287 15.325 -11.631 13.659 -12 12 C-12.471 7.603 -12.51 5.726 -9.938 2.062 C-6.24 -0.533 -4.434 -0.713 0 0 Z " fill="#000000" transform="translate(130,77)"/>
<path d="M0 0 C2.409 0.958 3.733 1.552 5.082 3.812 C7.603 11.361 7.576 18.058 4.25 25.375 C2.379 28.737 0.317 30.959 -3 33 C-3.99 33 -4.98 33 -6 33 C-5.568 29.259 -3.612 27.336 -1.211 24.566 C2.158 20.208 2.45 15.31 2 10 C1.154 6.938 0.131 3.968 -1 1 C-0.67 0.67 -0.34 0.34 0 0 Z " fill="#000000" transform="translate(95,83)"/>
<path d="M0 0 C1.938 0.375 1.938 0.375 4 1 C5.734 4.468 5.613 8.218 5 12 C2.5 15.062 2.5 15.062 0 17 C-0.99 16.67 -1.98 16.34 -3 16 C-1.125 12.125 -1.125 12.125 0 11 C0.072 9.147 0.084 7.292 0.062 5.438 C0.053 4.426 0.044 3.414 0.035 2.371 C0.024 1.589 0.012 0.806 0 0 Z " fill="#000000" transform="translate(87,90)"/>
</svg>
