<?xml version="1.0" encoding="UTF-8"?>
<!-- Generator: visioncortex VTracer 0.6.4 -->
<svg version="1.1" xmlns="http://www.w3.org/2000/svg" width="176" height="169">
<path d="M0 0 C0.866 0.536 1.733 1.072 2.625 1.625 C8.445 7.445 12.089 14.384 12.25 22.625 C12.04 35.65 5.247 44.897 -2.562 54.812 C-6.732 60.235 -9.172 65.514 -11.516 71.871 C-13.915 76.929 -17.853 80.778 -23 83 C-28.01 83.875 -31.938 83.408 -36.375 80.875 C-39.854 78.421 -41.631 76.106 -43 72 C-43.188 69.125 -43.188 69.125 -43 67 C-41.188 67.062 -41.188 67.062 -39 68 C-38.526 69.114 -38.051 70.228 -37.562 71.375 C-36.3 75.011 -36.3 75.011 -33.812 76.938 C-30.186 78.307 -26.811 78.917 -23 78 C-18.223 75.073 -16.546 71.379 -14.5 66.375 C-11.122 58.612 -6.784 52.071 -1.568 45.417 C4.919 36.978 8.271 28.718 7 18 C5.895 11.886 2.977 8.321 -1.824 4.477 C-7.449 0.659 -13.174 -0.927 -20 0 C-26.468 1.343 -31.726 3.869 -36 9 C-38.913 13.998 -40.576 19.422 -42 25 C-42.66 25 -43.32 25 -44 25 C-45.719 18.41 -44.036 13.981 -41 8 C-36.65 1.251 -30.025 -2.684 -22.375 -4.688 C-14.113 -5.453 -7.044 -4.475 0 0 Z " fill="#000000" transform="translate(125,57)"/>
<path d="M0 0 C4.302 3.702 6.709 7.038 7.438 12.688 C7.52 13.884 7.602 15.08 7.688 16.312 C6.368 16.312 5.047 16.312 3.688 16.312 C3.529 15.542 3.37 14.771 3.207 13.977 C2.857 12.472 2.857 12.472 2.5 10.938 C2.28 9.94 2.059 8.942 1.832 7.914 C0.92 5.103 0.92 5.103 -1.801 4.023 C-3.044 3.672 -3.044 3.672 -4.312 3.312 C-4.972 2.983 -5.632 2.653 -6.312 2.312 C-10.815 2.268 -14.393 2.745 -18.25 5.125 C-21.3 8.359 -22.196 10.101 -22.625 14.562 C-22.36 17.738 -21.975 19.469 -20.812 22.312 C-19.266 26.164 -18.692 29.122 -19.312 33.312 C-20.914 35.365 -22.58 37.369 -24.312 39.312 C-25.178 42.034 -25.178 42.034 -25.312 44.312 C-23.332 44.642 -21.353 44.972 -19.312 45.312 C-19.312 46.303 -19.312 47.292 -19.312 48.312 C-22.832 48.632 -24.733 48.684 -27.75 46.75 C-29.312 44.312 -29.312 44.312 -29.312 40.875 C-28.312 37.312 -28.312 37.312 -26.25 34.75 C-24.097 32.454 -24.097 32.454 -23.875 29.5 C-24.252 26.756 -24.794 24.899 -25.812 22.375 C-27.612 17.837 -28.192 14.045 -26.656 9.273 C-24.413 4.111 -21.332 0.877 -16.312 -1.688 C-10.696 -3.537 -5.187 -2.643 0 0 Z " fill="#000000" transform="translate(118.3125,65.6875)"/>
<path d="M0 0 C6.52 4.549 10.542 11.116 12 19 C12.997 30.915 10.675 40.093 3.465 49.637 C2 51 2 51 -1 51 C-0.605 46.659 1.093 44.228 3.746 40.941 C8.019 34.325 7.801 26.569 7 19 C5.294 13.165 3.321 8.295 -1 4 C-0.688 1.812 -0.688 1.812 0 0 Z " fill="#000000" transform="translate(63,76)"/>
<path d="M0 0 C4.672 1.847 5.961 4.743 8.012 9.148 C10.586 16.575 9.507 23.165 6.168 30.125 C4.941 32.095 3.809 33.542 2 35 C1.01 35 0.02 35 -1 35 C-0.393 32.095 0.538 29.968 2.062 27.438 C4.632 22.393 4.854 17.552 4 12 C2.919 9.373 1.604 7.381 0 5 C-0.812 2.625 -0.812 2.625 -1 1 C-0.67 0.67 -0.34 0.34 0 0 Z " fill="#000000" transform="translate(55,84)"/>
<path d="M0 0 C2.288 0.915 3.734 1.655 5.25 3.625 C6.753 8.383 6.636 12.473 4.75 17 C4.172 17.66 3.595 18.32 3 19 C1.68 19 0.36 19 -1 19 C-0.494 16.831 -0 15 1 13 C1.258 8.445 0.999 5.122 -1 1 C-0.67 0.67 -0.34 0.34 0 0 Z " fill="#000000" transform="translate(47,92)"/>
</svg>
