<?xml version="1.0" encoding="UTF-8"?>
<!-- Generator: visioncortex VTracer 0.6.4 -->
<svg version="1.1" xmlns="http://www.w3.org/2000/svg" width="176" height="169">
<path d="M0 0 C0.991 -0.009 1.982 -0.019 3.003 -0.029 C4.072 -0.023 5.141 -0.017 6.242 -0.01 C7.341 -0.013 8.439 -0.016 9.571 -0.019 C11.894 -0.021 14.218 -0.015 16.541 -0.003 C20.103 0.013 23.664 -0.003 27.227 -0.022 C29.482 -0.02 31.737 -0.016 33.992 -0.01 C35.061 -0.016 36.13 -0.022 37.231 -0.029 C38.718 -0.014 38.718 -0.014 40.234 0 C41.107 0.002 41.979 0.005 42.878 0.007 C45.117 0.388 45.117 0.388 46.904 1.675 C48.994 4.625 48.423 8.103 48.305 11.576 C48.284 12.7 48.284 12.7 48.264 13.847 C48.228 15.694 48.175 17.541 48.117 19.388 C47.127 19.058 46.137 18.728 45.117 18.388 C44.787 14.098 44.457 9.808 44.117 5.388 C39.867 5.217 35.617 5.051 31.367 4.888 C29.615 4.817 29.615 4.817 27.828 4.744 C17.234 4.345 6.745 4.388 -3.883 4.388 C-3.883 34.088 -3.883 63.788 -3.883 94.388 C11.957 94.388 27.797 94.388 44.117 94.388 C44.447 88.778 44.777 83.168 45.117 77.388 C46.107 77.388 47.097 77.388 48.117 77.388 C48.198 80.326 48.258 83.262 48.305 86.201 C48.33 87.034 48.355 87.867 48.381 88.726 C48.391 89.529 48.4 90.331 48.41 91.158 C48.426 91.896 48.442 92.634 48.458 93.395 C48.009 96.021 47.2 96.754 45.117 98.388 C42.878 98.769 42.878 98.769 40.234 98.776 C39.243 98.786 38.252 98.795 37.231 98.805 C36.162 98.799 35.093 98.793 33.992 98.787 C32.894 98.789 31.795 98.792 30.664 98.795 C28.34 98.797 26.017 98.792 23.693 98.779 C20.131 98.763 16.57 98.779 13.008 98.798 C10.753 98.796 8.497 98.793 6.242 98.787 C5.173 98.793 4.105 98.799 3.003 98.805 C1.517 98.791 1.517 98.791 0 98.776 C-0.873 98.774 -1.745 98.772 -2.644 98.769 C-5.412 98.298 -6.14 97.549 -7.883 95.388 C-8.179 92.406 -8.292 89.633 -8.271 86.65 C-8.276 85.757 -8.282 84.864 -8.287 83.944 C-8.3 80.988 -8.291 78.032 -8.281 75.076 C-8.283 73.024 -8.286 70.973 -8.29 68.922 C-8.294 64.621 -8.288 60.321 -8.274 56.02 C-8.257 50.502 -8.267 44.984 -8.285 39.465 C-8.295 35.229 -8.292 30.993 -8.284 26.757 C-8.282 24.722 -8.285 22.687 -8.292 20.652 C-8.299 17.81 -8.288 14.968 -8.271 12.126 C-8.277 11.282 -8.283 10.437 -8.289 9.567 C-8.227 3.814 -8.227 3.814 -6.499 1.672 C-4.281 -0.09 -2.813 0.008 0 0 Z " fill="#000000" transform="translate(50.8828125,25.61181640625)"/>
<path d="M0 0 C1.98 0 3.96 0 6 0 C6 1.32 6 2.64 6 4 C4.02 4 2.04 4 0 4 C0 2.68 0 1.36 0 0 Z " fill="#000000" transform="translate(68,32)"/>
<path d="M0 0 C0.747 -0.005 1.493 -0.011 2.263 -0.016 C4.732 -0.029 7.201 -0.02 9.67 -0.01 C11.385 -0.012 13.1 -0.015 14.815 -0.019 C18.409 -0.023 22.004 -0.017 25.598 -0.003 C30.209 0.014 34.819 0.004 39.429 -0.014 C42.97 -0.024 46.512 -0.021 50.053 -0.013 C51.753 -0.011 53.453 -0.014 55.153 -0.021 C57.528 -0.028 59.902 -0.017 62.277 0 C63.334 -0.009 63.334 -0.009 64.412 -0.018 C67.223 0.018 69.191 0.094 71.574 1.659 C72.863 3.752 73.019 4.993 73.027 7.445 C73.036 8.256 73.046 9.067 73.056 9.902 C73.049 10.774 73.043 11.646 73.037 12.544 C73.04 13.443 73.043 14.342 73.046 15.268 C73.048 17.167 73.042 19.067 73.03 20.967 C73.014 23.877 73.03 26.786 73.049 29.697 C73.047 31.542 73.043 33.387 73.037 35.232 C73.043 36.104 73.049 36.976 73.056 37.874 C73.041 39.091 73.041 39.091 73.027 40.332 C73.024 41.044 73.022 41.757 73.02 42.491 C72.526 44.949 71.555 45.821 69.639 47.388 C66.458 48.979 63.038 48.397 59.553 48.318 C57.882 48.307 56.212 48.299 54.541 48.294 C51.915 48.287 49.294 48.264 46.669 48.186 C34.492 47.723 34.492 47.723 24.202 53.451 C22.723 54.959 21.344 56.52 19.964 58.119 C19.197 58.868 18.429 59.617 17.639 60.388 C16.319 60.058 14.999 59.728 13.639 59.388 C13.309 55.758 12.979 52.128 12.639 48.388 C10.885 48.44 10.885 48.44 9.096 48.494 C7.548 48.522 5.999 48.549 4.451 48.576 C3.298 48.613 3.298 48.613 2.121 48.652 C-2.547 48.712 -5.569 48.429 -9.361 45.388 C-11.04 42.031 -10.546 38.242 -10.564 34.548 C-10.57 33.67 -10.576 32.793 -10.582 31.888 C-10.591 30.029 -10.598 28.171 -10.602 26.312 C-10.611 23.466 -10.642 20.62 -10.674 17.773 C-10.68 15.969 -10.686 14.165 -10.689 12.361 C-10.702 11.508 -10.714 10.654 -10.727 9.775 C-10.705 3.946 -10.705 3.946 -9.299 1.664 C-6.359 -0.271 -3.404 -0.029 0 0 Z M-6.361 4.388 C-6.386 9.924 -6.404 15.46 -6.416 20.996 C-6.421 22.881 -6.428 24.765 -6.437 26.65 C-6.449 29.353 -6.455 32.056 -6.459 34.759 C-6.464 35.607 -6.469 36.455 -6.475 37.329 C-6.475 39.349 -6.423 41.369 -6.361 43.388 C-5.334 44.639 -5.334 44.639 -3.136 44.502 C-2.178 44.496 -1.22 44.491 -0.232 44.486 C0.802 44.483 1.837 44.479 2.902 44.476 C3.991 44.468 5.08 44.459 6.201 44.451 C7.294 44.446 8.386 44.442 9.512 44.437 C12.221 44.425 14.93 44.409 17.639 44.388 C17.639 47.358 17.639 50.328 17.639 53.388 C20.989 51.713 22.346 50.81 24.817 48.307 C28.976 44.672 32.421 44.567 37.783 44.689 C38.634 44.682 39.485 44.676 40.362 44.669 C43.059 44.652 45.754 44.673 48.451 44.701 C51.166 44.712 53.879 44.715 56.594 44.7 C58.278 44.693 59.962 44.701 61.645 44.727 C64.18 44.76 64.18 44.76 67.639 44.388 C70.118 40.669 69.911 37.81 69.869 33.509 C69.869 32.741 69.868 31.974 69.868 31.182 C69.865 29.561 69.857 27.94 69.844 26.318 C69.826 23.832 69.824 21.345 69.824 18.859 C69.819 17.284 69.813 15.709 69.807 14.134 C69.806 13.388 69.804 12.643 69.803 11.874 C69.838 8.003 69.838 8.003 68.639 4.388 C65.201 3.106 61.729 3.261 58.098 3.259 C57.126 3.256 57.126 3.256 56.135 3.253 C54.001 3.249 51.867 3.252 49.732 3.255 C48.246 3.255 46.759 3.254 45.272 3.252 C42.158 3.251 39.045 3.253 35.931 3.258 C31.943 3.264 27.955 3.26 23.967 3.254 C20.898 3.251 17.828 3.252 14.759 3.254 C13.288 3.255 11.818 3.254 10.347 3.252 C8.291 3.249 6.236 3.253 4.18 3.259 C2.426 3.26 2.426 3.26 0.636 3.261 C-1.889 3.368 -3.96 3.646 -6.361 4.388 Z " fill="#000000" transform="translate(68.361328125,47.61181640625)"/>
<path d="M0 0 C0.99 0 1.98 0 3 0 C4.252 2.505 4.114 4.209 4.098 7.008 C4.094 7.994 4.091 8.98 4.088 9.996 C4.08 11.029 4.071 12.061 4.062 13.125 C4.058 14.165 4.053 15.206 4.049 16.277 C4.037 18.852 4.021 21.426 4 24 C2.68 24.33 1.36 24.66 0 25 C0 16.75 0 8.5 0 0 Z " fill="#000000" transform="translate(98,59)"/>
<path d="M0 0 C0.99 0.33 1.98 0.66 3 1 C3 7.6 3 14.2 3 21 C1.68 20.67 0.36 20.34 -1 20 C-1.029 16.854 -1.047 13.708 -1.062 10.562 C-1.071 9.665 -1.079 8.767 -1.088 7.842 C-1.091 6.988 -1.094 6.134 -1.098 5.254 C-1.106 4.068 -1.106 4.068 -1.114 2.858 C-1 1 -1 1 0 0 Z " fill="#000000" transform="translate(81,61)"/>
<path d="M0 0 C0.99 0 1.98 0 3 0 C3 6.93 3 13.86 3 21 C2.01 21 1.02 21 0 21 C-0.821 16.699 -1.135 12.627 -1.125 8.25 C-1.128 7.121 -1.13 5.992 -1.133 4.828 C-1 2 -1 2 0 0 Z " fill="#000000" transform="translate(116,61)"/>
<path d="M0 0 C0.99 0.33 1.98 0.66 3 1 C3 4.63 3 8.26 3 12 C1.68 12 0.36 12 -1 12 C-1.027 10.188 -1.046 8.375 -1.062 6.562 C-1.074 5.553 -1.086 4.544 -1.098 3.504 C-1 1 -1 1 0 0 Z " fill="#000000" transform="translate(90,65)"/>
<path d="M0 0 C0.99 0 1.98 0 3 0 C3 3.63 3 7.26 3 11 C2.01 11.33 1.02 11.66 0 12 C-1.19 9.62 -1.133 8.085 -1.125 5.438 C-1.129 4.229 -1.129 4.229 -1.133 2.996 C-1 1 -1 1 0 0 Z " fill="#000000" transform="translate(72,66)"/>
<path d="M0 0 C0.66 0.33 1.32 0.66 2 1 C2 4.63 2 8.26 2 12 C0.68 12 -0.64 12 -2 12 C-2 8.37 -2 4.74 -2 1 C-1.34 0.67 -0.68 0.34 0 0 Z " fill="#000000" transform="translate(126,65)"/>
<path d="M0 0 C1.485 0.99 1.485 0.99 3 2 C2.67 3.98 2.34 5.96 2 8 C1.01 8 0.02 8 -1 8 C-1.042 5.667 -1.041 3.333 -1 1 C-0.67 0.67 -0.34 0.34 0 0 Z " fill="#000000" transform="translate(108,67)"/>
<path d="M0 0 C1.98 0 3.96 0 6 0 C6 1.32 6 2.64 6 4 C4.02 4 2.04 4 0 4 C0 2.68 0 1.36 0 0 Z " fill="#000000" transform="translate(68,114)"/>
</svg>
