<?xml version="1.0" encoding="UTF-8"?>
<!-- Generator: visioncortex VTracer 0.6.4 -->
<svg version="1.1" xmlns="http://www.w3.org/2000/svg" width="176" height="169">
<path d="M0 0 C3.61 0.436 5.334 1.957 7.86 4.479 C8.614 5.225 9.369 5.971 10.146 6.739 C11.372 7.975 11.372 7.975 12.624 9.236 C13.493 10.099 14.361 10.963 15.256 11.852 C17.636 14.221 20.008 16.596 22.377 18.974 C24.856 21.461 27.343 23.941 29.828 26.421 C34 30.587 38.165 34.76 42.327 38.936 C47.141 43.767 51.967 48.587 56.798 53.402 C60.944 57.534 65.084 61.672 69.219 65.814 C71.689 68.29 74.162 70.763 76.64 73.231 C79.4 75.981 82.147 78.742 84.894 81.505 C85.719 82.325 86.545 83.145 87.396 83.99 C88.139 84.741 88.883 85.493 89.648 86.267 C90.299 86.919 90.95 87.572 91.621 88.244 C93 90 93 90 93 93 C91.35 92.67 89.7 92.34 88 92 C88 91.34 88 90.68 88 90 C86.515 89.505 86.515 89.505 85 89 C83.634 87.36 82.305 85.689 81 84 C78.285 81.138 75.46 78.526 72.438 76 C70.237 74.152 68.624 72.527 66.812 70.25 C64.985 67.981 63.679 67.052 61 66 C59.717 68.553 58.453 71.114 57.195 73.68 C56.505 75.078 55.815 76.477 55.125 77.875 C54.786 78.57 54.447 79.265 54.098 79.98 C50.436 87.372 46.644 94.178 39 98 C32.354 98.783 27.101 98.487 21.594 94.492 C18.358 91.463 17.097 88.492 16.812 84.125 C16.905 83.073 16.905 83.073 17 82 C18.485 81.505 18.485 81.505 20 81 C20.242 81.615 20.485 82.23 20.734 82.863 C23.066 89.019 23.066 89.019 28 93 C32.879 94.41 36.363 94.07 41 92 C45.57 87.626 47.737 82.436 49.855 76.594 C51.56 72.731 54.033 69.55 56.609 66.227 C58.353 63.872 58.353 63.872 58 60 C57.34 60 56.68 60 56 60 C56 59.34 56 58.68 56 58 C55.01 57.67 54.02 57.34 53 57 C53 56.34 53 55.68 53 55 C52.34 55 51.68 55 51 55 C51 54.34 51 53.68 51 53 C50.34 53 49.68 53 49 53 C49 52.34 49 51.68 49 51 C48.01 50.67 47.02 50.34 46 50 C44.753 48.556 43.511 47.107 42.32 45.617 C38.998 41.547 35.147 38.199 31 35 C30.441 39.361 31.264 41.741 33.5 45.375 C36.22 49.999 36.874 52.667 36 58 C34.509 60.204 32.795 62.021 31 64 C31.33 64.99 31.66 65.98 32 67 C34.504 68.219 34.504 68.219 37 69 C37 69.99 37 70.98 37 72 C30.698 71.406 30.698 71.406 28.062 69.875 C26.329 66.815 26.579 64.432 27 61 C28.313 59.646 29.646 58.312 31 57 C31.939 52.62 30.6 50.108 28.5 46.375 C25.702 41.253 25.715 37.295 26.312 31.566 C26.209 30.719 26.106 29.873 26 29 C23.602 27.097 23.602 27.097 21 26 C19.997 29.008 19.697 31.538 19.438 34.688 C19.354 35.681 19.27 36.675 19.184 37.699 C19.093 38.838 19.093 38.838 19 40 C17.68 40 16.36 40 15 40 C14.763 32.965 15.212 26.817 17 20 C16.34 19.546 15.68 19.093 15 18.625 C14.34 18.089 13.68 17.552 13 17 C13 16.34 13 15.68 13 15 C12.34 15 11.68 15 11 15 C11 14.34 11 13.68 11 13 C10.34 13 9.68 13 9 13 C9 12.34 9 11.68 9 11 C7.68 10.34 6.36 9.68 5 9 C5 8.34 5 7.68 5 7 C4.34 7 3.68 7 3 7 C3 6.34 3 5.68 3 5 C2.34 5 1.68 5 1 5 C0.34 3.68 -0.32 2.36 -1 1 C-0.67 0.67 -0.34 0.34 0 0 Z " fill="#000000" transform="translate(46,46)"/>
<path d="M0 0 C6.6 4.756 9.99 10.304 12.125 18.125 C13.406 27.736 11.312 36.2 6.062 44.312 C4.125 46.125 4.125 46.125 1.125 46.125 C1.831 42.683 3.192 39.795 4.688 36.625 C7.968 28.796 8.665 21.356 5.625 13.312 C2.219 6.751 -2.879 2.502 -9.875 0.188 C-20.42 -2.381 -28.409 0.215 -37.875 5.125 C-38.205 3.805 -38.535 2.485 -38.875 1.125 C-27.178 -8.043 -12.291 -7.844 0 0 Z " fill="#000000" transform="translate(109.875,57.875)"/>
<path d="M0 0 C3.643 2.919 5.704 6.456 7.125 10.875 C7.375 14.375 7.375 14.375 7.125 16.875 C5.805 16.875 4.485 16.875 3.125 16.875 C2.898 15.679 2.671 14.483 2.438 13.25 C1.263 8.619 -0.413 6.179 -3.875 2.875 C-8.878 0.26 -13.504 0.799 -18.875 1.875 C-21.79 2.82 -21.79 2.82 -23.875 3.875 C-23.875 2.555 -23.875 1.235 -23.875 -0.125 C-16.672 -5.682 -7.452 -4.754 0 0 Z " fill="#000000" transform="translate(103.875,67.125)"/>
</svg>
