<?xml version="1.0" encoding="UTF-8"?>
<!-- Generator: visioncortex VTracer 0.6.4 -->
<svg version="1.1" xmlns="http://www.w3.org/2000/svg" width="176" height="169">
<path d="M0 0 C0.66 0.33 1.32 0.66 2 1 C2.433 3.128 2.865 5.256 3.295 7.384 C4.8 12.967 7.944 17.941 10.719 22.979 C11.392 24.252 11.392 24.252 12.078 25.551 C12.703 26.69 12.703 26.69 13.341 27.853 C14 30 14 30 13.335 32.169 C11.192 35.108 8.353 35.823 5 37 C4.01 37 3.02 37 2 37 C2.021 38.299 2.041 39.599 2.062 40.938 C2.084 42.292 2.071 43.648 2 45 C-0.236 47.236 -5.287 46.519 -8.312 46.719 C-10.916 46.706 -10.916 46.706 -12 48 C-12.041 50.333 -12.042 52.667 -12 55 C-11.043 55.091 -11.043 55.091 -10.066 55.184 C-9.24 55.267 -8.414 55.351 -7.562 55.438 C-6.739 55.519 -5.915 55.6 -5.066 55.684 C-3 56 -3 56 -2 57 C-1.75 59.438 -1.75 59.438 -2 62 C-2.99 62.66 -3.98 63.32 -5 64 C-5.653 66.253 -5.653 66.253 -5.938 68.812 C-6.727 73.222 -7.497 75.97 -11 79 C-15.362 81.053 -18.145 81.211 -22.625 79.75 C-24.091 79.186 -25.55 78.604 -27 78 C-28.011 77.608 -29.021 77.216 -30.062 76.812 C-30.702 76.544 -31.341 76.276 -32 76 C-36.072 79.423 -38.682 82.314 -39.688 87.648 C-39.912 91.11 -40.034 94.532 -40 98 C-41.32 98 -42.64 98 -44 98 C-45.207 84.536 -45.207 84.536 -40.5 78.75 C-39.85 78.064 -39.201 77.378 -38.531 76.672 C-36.775 75.132 -36.775 75.132 -37 73 C-37.892 72.553 -38.784 72.105 -39.703 71.645 C-41.459 70.738 -41.459 70.738 -43.25 69.812 C-44.41 69.221 -45.57 68.629 -46.766 68.02 C-50.091 65.943 -51.927 64.309 -54 61 C-54.609 58.324 -54.609 58.324 -54.75 55.688 C-54.807 54.804 -54.863 53.921 -54.922 53.012 C-54.948 52.348 -54.973 51.684 -55 51 C-53.68 51 -52.36 51 -51 51 C-50.89 51.615 -50.781 52.23 -50.668 52.863 C-50.509 53.672 -50.351 54.48 -50.188 55.312 C-50.037 56.113 -49.886 56.914 -49.73 57.738 C-48.417 61.806 -46.325 62.822 -42.594 64.867 C-41.233 65.544 -39.868 66.213 -38.5 66.875 C-37.786 67.224 -37.072 67.572 -36.336 67.931 C-34.898 68.631 -33.458 69.328 -32.017 70.022 C-30.238 70.884 -28.474 71.774 -26.711 72.668 C-22.714 74.633 -19.934 76 -15.438 76 C-12.688 75.137 -12.688 75.137 -11 72 C-10.656 69.853 -10.656 69.853 -10.562 67.562 C-10.238 63.876 -9.704 61.704 -7 59 C-8.093 58.917 -9.186 58.835 -10.312 58.75 C-14 58 -14 58 -15.938 56.375 C-17.437 53.023 -17.454 50.63 -17 47 C-14.781 44.093 -13.481 43.16 -10 42 C-8.606 41.933 -7.208 41.915 -5.812 41.938 C-4.554 41.958 -3.296 41.979 -2 42 C-2 39.69 -2 37.38 -2 35 C4.625 32.125 4.625 32.125 8 31 C7.363 25.138 4.059 20.41 1.15 15.414 C-1.427 10.781 -2.711 7.452 -2 2 C-1.34 1.34 -0.68 0.68 0 0 Z " fill="#000000" transform="translate(99,23)"/>
<path d="M0 0 C-1.477 4.511 -5.017 6.144 -8.938 8.312 C-9.888 8.87 -9.888 8.87 -10.857 9.439 C-12.525 10.381 -14.26 11.2 -16 12 C-16.99 11.67 -17.98 11.34 -19 11 C-17.523 6.489 -13.983 4.856 -10.062 2.688 C-9.429 2.316 -8.795 1.944 -8.143 1.561 C-3.382 -1.127 -3.382 -1.127 0 0 Z " fill="#000000" transform="translate(134,55)"/>
<path d="M0 0 C0.833 0.005 1.665 0.01 2.523 0.016 C3.422 0.019 4.321 0.022 5.248 0.026 C6.666 0.038 6.666 0.038 8.113 0.051 C9.062 0.056 10.012 0.06 10.99 0.065 C13.344 0.077 15.697 0.093 18.051 0.114 C18.051 1.434 18.051 2.754 18.051 4.114 C11.451 4.114 4.851 4.114 -1.949 4.114 C-2.279 3.124 -2.609 2.134 -2.949 1.114 C-1.949 0.114 -1.949 0.114 0 0 Z " fill="#000000" transform="translate(121.949462890625,73.886474609375)"/>
<path d="M0 0 C4.358 1.306 8.011 2.977 11.875 5.375 C12.842 5.96 13.809 6.545 14.805 7.148 C15.529 7.759 16.254 8.37 17 9 C17 10.32 17 11.64 17 13 C13.034 11.514 9.384 9.692 5.688 7.625 C4.619 7.04 3.55 6.455 2.449 5.852 C1.237 4.935 1.237 4.935 0 4 C0 2.68 0 1.36 0 0 Z " fill="#000000" transform="translate(116,85)"/>
</svg>
