<?xml version="1.0" encoding="UTF-8"?>
<!-- Generator: visioncortex VTracer 0.6.4 -->
<svg version="1.1" xmlns="http://www.w3.org/2000/svg" width="176" height="169">
<path d="M0 0 C0.788 0.092 1.576 0.185 2.388 0.28 C8.152 1.037 12.997 2.256 18 5.312 C18.743 5.734 19.485 6.156 20.25 6.59 C28.422 11.573 35.178 18.345 38.375 27.508 C40.396 36.579 40.001 45.379 35 53.312 C34.526 54.072 34.051 54.831 33.562 55.613 C26.41 65.843 15.148 71.303 3.172 73.934 C0.107 74.3 -2.782 74.254 -5.86 74.094 C-12.218 73.67 -12.218 73.67 -18.176 75.469 C-19.227 76.491 -20.243 77.55 -21.223 78.641 C-24.923 82.121 -30.164 83.942 -35 85.312 C-37.363 84.941 -37.363 84.941 -39 84.312 C-38.783 83.386 -38.783 83.386 -38.562 82.441 C-37.97 79.74 -37.464 77.038 -37 74.312 C-36.863 73.513 -36.727 72.714 -36.586 71.891 C-36.359 69.458 -36.345 67.672 -37 65.312 C-38.776 63.286 -40.694 61.759 -42.828 60.117 C-50.424 53.805 -52.465 45.838 -53.375 36.438 C-53.061 27.134 -48.398 18.822 -42 12.312 C-30.292 1.924 -15.274 -1.811 0 0 Z M-42.344 18.227 C-48.069 25.437 -49.951 33.221 -49 42.312 C-46.878 49.674 -42.38 56.834 -36.188 61.375 C-34 63.312 -34 63.312 -33.188 66.438 C-32.963 71.069 -32.916 75.677 -33 80.312 C-31.453 79.594 -29.913 78.862 -28.375 78.125 C-27.516 77.719 -26.658 77.313 -25.773 76.895 C-22.825 75.36 -22.825 75.36 -20.199 72.641 C-15.996 69.582 -13.443 69.873 -8.438 70.25 C-0.26 70.56 6.354 69.427 14 66.312 C14.757 66.024 15.513 65.735 16.293 65.438 C24.352 61.946 30.552 55.154 34.148 47.215 C36.376 39.623 36.308 31.236 33.125 23.938 C26.785 13.263 17.008 7.852 5.367 4.57 C-11.963 0.604 -30.052 5.078 -42.344 18.227 Z " fill="#000000" transform="translate(91,40.6875)"/>
<path d="M0 0 C0.99 0.33 1.98 0.66 3 1 C3 14.2 3 27.4 3 41 C-2.208 39.958 -2.683 39.708 -5.875 36 C-9.475 32.19 -11.651 31.202 -17 31 C-21.6 29.4 -21.6 29.4 -23 28 C-23.152 25.712 -23.222 23.418 -23.25 21.125 C-23.276 19.869 -23.302 18.614 -23.328 17.32 C-23 14 -23 14 -21.734 12.059 C-19.607 10.76 -18.47 10.824 -16 10.938 C-9.049 10.479 -4.588 4.725 0 0 Z M-2 7 C-2.422 7.494 -2.843 7.987 -3.277 8.496 C-6.728 12.531 -9.041 14.447 -14.438 14.938 C-15.958 14.99 -17.479 15.021 -19 15 C-19.027 16.812 -19.046 18.625 -19.062 20.438 C-19.074 21.447 -19.086 22.456 -19.098 23.496 C-19.286 25.94 -19.286 25.94 -18 27 C-16.605 27.079 -15.209 27.138 -13.812 27.188 C-8.353 27.692 -6.517 29.969 -3 34 C-2.34 34 -1.68 34 -1 34 C-1 25.09 -1 16.18 -1 7 C-1.33 7 -1.66 7 -2 7 Z " fill="#000000" transform="translate(83,58)"/>
<path d="M0 0 C2.417 0.382 3.719 0.723 5.484 2.461 C9.284 8.208 10.076 13.196 9 20 C7.743 23.938 6.547 27.122 2.859 29.215 C1.939 29.603 1.939 29.603 1 30 C1 26 1 26 2.5 23.438 C4.609 18.604 4.735 14.202 4 9 C2.907 6.653 1.635 5.044 0 3 C0 2.01 0 1.02 0 0 Z " fill="#000000" transform="translate(99,64)"/>
<path d="M0 0 C2.438 0.375 2.438 0.375 5 1 C6.528 4.057 6.232 6.63 6 10 C4.5 12.438 4.5 12.438 3 14 C2.01 13.67 1.02 13.34 0 13 C0.084 12.397 0.168 11.793 0.254 11.172 C0.356 10.373 0.458 9.573 0.562 8.75 C0.667 7.961 0.771 7.172 0.879 6.359 C1 3.995 0.696 2.249 0 0 Z " fill="#000000" transform="translate(91,72)"/>
<path d="M0 0 C1.875 0 1.875 0 4 1 C7.906 7.138 7.789 13.916 7 21 C5.04 27.492 0.608 33.261 -5 37 C-5.403 39.231 -5.403 39.231 -5.25 41.75 C-5.224 42.639 -5.198 43.529 -5.172 44.445 C-4.977 47.345 -4.599 50.155 -4 53 C-7.575 54.192 -8.405 53.746 -11.812 52.375 C-12.644 52.053 -13.475 51.73 -14.332 51.398 C-17 50 -17 50 -19.809 47.391 C-23.68 44.491 -26.603 44.339 -31.25 44.375 C-38.974 44.173 -46.446 43.962 -52.625 38.812 C-53.079 38.214 -53.532 37.616 -54 37 C-50.772 35.922 -49.175 36.073 -46.062 37.375 C-39.301 39.827 -32.009 40.204 -24.859 39.84 C-21.529 40.026 -20.433 40.733 -17.938 42.875 C-15.059 45.217 -12.591 46.878 -9 48 C-9.33 47.01 -9.66 46.02 -10 45 C-10.658 41.503 -10.822 38.479 -10 35 C-7.929 32.581 -5.701 30.761 -3.199 28.797 C0.812 25.52 1.748 22.099 2.875 17.188 C3.356 12.374 1.758 8.412 0 4 C-0.495 2.515 -0.495 2.515 -1 1 C-0.67 0.67 -0.34 0.34 0 0 Z " fill="#000000" transform="translate(134,84)"/>
</svg>
