<?xml version="1.0" encoding="UTF-8"?>
<!-- Generator: visioncortex VTracer 0.6.4 -->
<svg version="1.1" xmlns="http://www.w3.org/2000/svg" width="176" height="169">
<path d="M0 0 C4.703 1.176 5.204 2.243 8 6 C9.083 6.928 9.083 6.928 10.188 7.875 C12.654 10.766 12.714 13.283 13 17 C11.68 17.33 10.36 17.66 9 18 C8.807 17.434 8.613 16.868 8.414 16.285 C8.023 15.185 8.023 15.185 7.625 14.062 C7.37 13.332 7.115 12.601 6.852 11.848 C6.147 9.813 6.147 9.813 4 9 C4.016 9.64 4.031 10.281 4.048 10.94 C4.11 13.856 4.149 16.771 4.188 19.688 C4.213 20.695 4.238 21.702 4.264 22.74 C4.357 32.209 4.357 32.209 1 36 C-2.903 38.283 -4.899 39.224 -9.375 38.312 C-12 37 -12 37 -13 35 C-13.438 32.188 -13.438 32.188 -13 29 C-9.548 25.127 -9.548 25.127 -7 24 C-4.69 24 -2.38 24 0 24 C0 16.08 0 8.16 0 0 Z M-9 30 C-8.68 32.603 -8.68 32.603 -8 35 C-4.312 34.502 -2.395 33.899 0 31 C-0.33 30.01 -0.66 29.02 -1 28 C-5.493 27.575 -5.493 27.575 -9 30 Z " fill="#000000" transform="translate(109,22)"/>
<path d="M0 0 C3 2 3 2 3.566 3.837 C3.674 4.565 3.783 5.293 3.895 6.043 C5.086 12.211 8 17.225 10.986 22.689 C11.387 23.448 11.787 24.207 12.199 24.988 C12.569 25.664 12.938 26.34 13.319 27.036 C14.157 29.452 13.932 30.644 13 33 C11.223 34.266 11.223 34.266 9.062 35.25 C8.352 35.585 7.642 35.92 6.91 36.266 C5 37 5 37 3 37 C3.021 38.114 3.041 39.227 3.062 40.375 C3 44 3 44 2 46 C-2.62 46 -7.24 46 -12 46 C-8.451 50.011 -8.451 50.011 -4.875 51.438 C-2 53 -2 53 -0.625 55.688 C-0.419 56.451 -0.213 57.214 0 58 C-0.725 58.59 -0.725 58.59 -1.465 59.191 C-3.433 61.51 -3.422 62.931 -3.562 65.938 C-3.792 70.554 -4.446 73.381 -7.695 76.766 C-10.909 78.487 -13.271 78.045 -16.875 77.75 C-21.759 77.575 -21.759 77.575 -26.215 79.23 C-30.255 83.547 -30.974 88.236 -31 94 C-31.99 94 -32.98 94 -34 94 C-34.92 83.622 -34.92 83.622 -32.664 79.645 C-31 77.75 -31 77.75 -28 75 C-30.64 73.68 -33.28 72.36 -36 71 C-36 70.01 -36 69.02 -36 68 C-30.262 68.743 -25.5 70.763 -20.219 73.039 C-16.627 74.111 -14.58 74.019 -11 73 C-8.537 70.537 -8.704 69.584 -8.5 66.188 C-8.201 62.435 -7.705 59.411 -6 56 C-6.554 55.662 -7.109 55.325 -7.68 54.977 C-8.766 54.308 -8.766 54.308 -9.875 53.625 C-10.594 53.184 -11.314 52.743 -12.055 52.289 C-14 51 -14 51 -16 49 C-16.188 45.937 -16.188 45.937 -16 43 C-15 42 -15 42 -11.84 41.902 C-10.552 41.914 -9.264 41.926 -7.938 41.938 C-6.647 41.947 -5.357 41.956 -4.027 41.965 C-3.028 41.976 -2.029 41.988 -1 42 C-1 39.36 -1 36.72 -1 34 C2.3 32.68 5.6 31.36 9 30 C7.709 27.25 6.417 24.5 5.125 21.75 C4.76 20.973 4.395 20.195 4.02 19.395 C3.665 18.64 3.311 17.886 2.945 17.109 C2.458 16.072 2.458 16.072 1.961 15.015 C1.297 13.622 0.606 12.243 -0.107 10.875 C-1.662 7.61 -1.175 4.568 -1 1 C-0.67 0.67 -0.34 0.34 0 0 Z " fill="#000000" transform="translate(77,32)"/>
<path d="M0 0 C0.074 4.323 0.129 8.646 0.165 12.97 C0.18 14.439 0.2 15.909 0.226 17.378 C0.263 19.496 0.28 21.613 0.293 23.73 C0.309 25.003 0.324 26.276 0.341 27.587 C-0.027 31.271 -0.76 33.087 -3 36 C-6.81 38.54 -9.535 38.586 -14 38 C-16 36.875 -16 36.875 -17 35 C-17.5 32.125 -17.5 32.125 -17 29 C-14.273 25.282 -12.727 24.155 -8.188 23.188 C-6.61 23.095 -6.61 23.095 -5 23 C-4.67 19.7 -4.34 16.4 -4 13 C-9.61 15.31 -15.22 17.62 -21 20 C-21.049 21.397 -21.098 22.795 -21.148 24.234 C-21.223 26.073 -21.299 27.911 -21.375 29.75 C-21.421 31.131 -21.421 31.131 -21.469 32.539 C-21.507 33.429 -21.546 34.318 -21.586 35.234 C-21.617 36.051 -21.649 36.868 -21.681 37.71 C-22.195 41.398 -23.285 43.428 -26.188 45.75 C-29.713 47.317 -32.18 47.424 -36 47 C-37.938 45.875 -37.938 45.875 -39 44 C-39.5 41.125 -39.5 41.125 -39 38 C-36.938 35.188 -36.938 35.188 -34 33 C-30.535 32.505 -30.535 32.505 -27 32 C-26.67 24.41 -26.34 16.82 -26 9 C-20.752 6.376 -15.607 3.883 -10.188 1.688 C-9.533 1.411 -8.879 1.134 -8.205 0.85 C-3.353 -1.118 -3.353 -1.118 0 0 Z M-13.5 6.938 C-14.203 7.215 -14.905 7.493 -15.629 7.779 C-19.069 8.967 -19.069 8.967 -22 11 C-22 12.65 -22 14.3 -22 16 C-13.09 12.535 -13.09 12.535 -4 9 C-4.33 7.35 -4.66 5.7 -5 4 C-7.769 4 -10.909 5.899 -13.5 6.938 Z M-11.312 28.188 C-13.454 30.075 -13.454 30.075 -13 34 C-10.025 35.369 -10.025 35.369 -7.375 33.812 C-4.864 32.231 -4.864 32.231 -4.188 29.812 C-4.126 29.214 -4.064 28.616 -4 28 C-7.048 27.069 -8.421 26.702 -11.312 28.188 Z M-33.25 37.25 C-33.828 37.828 -34.405 38.405 -35 39 C-35 40.32 -35 41.64 -35 43 C-30.81 43.347 -30.81 43.347 -27.062 41.75 C-25.761 40.023 -25.761 40.023 -26.312 37.812 C-26.539 37.214 -26.766 36.616 -27 36 C-30.846 35.676 -30.846 35.676 -33.25 37.25 Z " fill="#000000" transform="translate(146,44)"/>
<path d="M0 0 C-0.07 1.793 -0.07 1.793 -1 4 C-3.32 5.32 -5.419 6.334 -7.875 7.312 C-8.513 7.589 -9.151 7.866 -9.809 8.15 C-14.596 10.135 -14.596 10.135 -18 9 C-17 6 -17 6 -14.199 4.395 C-12.461 3.611 -12.461 3.611 -10.688 2.812 C-9.536 2.283 -8.385 1.753 -7.199 1.207 C-4 0 -4 0 0 0 Z " fill="#000000" transform="translate(107,68)"/>
<path d="M0 0 C3.966 0.668 7.515 1.827 11.25 3.312 C12.836 3.925 12.836 3.925 14.453 4.551 C17 6 17 6 17.859 8.168 C17.906 8.773 17.952 9.377 18 10 C13.214 9.425 9.462 8.018 5.125 5.938 C3.973 5.39 2.82 4.842 1.633 4.277 C0.764 3.856 -0.105 3.434 -1 3 C-0.67 2.01 -0.34 1.02 0 0 Z " fill="#000000" transform="translate(90,92)"/>
</svg>
