<?xml version="1.0" encoding="UTF-8"?>
<!-- Generator: visioncortex VTracer 0.6.4 -->
<svg version="1.1" xmlns="http://www.w3.org/2000/svg" width="176" height="169">
<path d="M0 0 C3.599 2.982 5.718 6.403 7.188 10.812 C7.309 13.753 7.376 16.668 7.391 19.609 C7.396 20.476 7.402 21.343 7.408 22.237 C7.417 24.072 7.424 25.908 7.428 27.744 C7.437 30.538 7.468 33.331 7.5 36.125 C7.507 37.911 7.512 39.698 7.516 41.484 C7.528 42.314 7.54 43.143 7.553 43.998 C7.527 50.807 6.282 55.519 1.562 60.688 C-2.639 63.333 -5.878 64.105 -10.812 63.812 C-16.031 62.273 -18.915 60.427 -21.812 55.812 C-23.868 50.839 -24.119 46.484 -24.113 41.195 C-24.118 40.379 -24.122 39.563 -24.126 38.723 C-24.132 37.003 -24.133 35.284 -24.128 33.564 C-24.125 30.952 -24.148 28.342 -24.174 25.73 C-24.176 24.052 -24.177 22.374 -24.176 20.695 C-24.185 19.924 -24.194 19.153 -24.204 18.359 C-24.155 12.62 -23.41 6.685 -19.396 2.246 C-13.329 -3.007 -7.198 -3.039 0 0 Z M-16.812 4.812 C-20.044 9.907 -20.254 14.102 -20.211 19.938 C-20.214 20.803 -20.217 21.668 -20.22 22.559 C-20.222 24.381 -20.216 26.203 -20.204 28.025 C-20.188 30.804 -20.203 33.581 -20.223 36.359 C-20.221 38.135 -20.217 39.911 -20.211 41.688 C-20.217 42.513 -20.223 43.338 -20.229 44.188 C-20.17 49.129 -19.532 52.525 -16.812 56.812 C-13.923 59.22 -12.118 59.774 -8.375 60.25 C-4.103 59.725 -2.062 58.609 1.188 55.812 C3.684 51.294 3.494 46.809 3.488 41.785 C3.493 40.919 3.497 40.052 3.501 39.159 C3.507 37.331 3.508 35.503 3.503 33.675 C3.5 30.888 3.523 28.102 3.549 25.314 C3.551 23.534 3.552 21.753 3.551 19.973 C3.56 19.144 3.569 18.316 3.579 17.463 C3.539 12.506 2.922 9.113 0.188 4.812 C-2.745 2.369 -4.501 1.846 -8.312 1.438 C-12.124 1.846 -13.88 2.369 -16.812 4.812 Z " fill="#000000" transform="translate(100.8125,37.1875)"/>
<path d="M0 0 C0.99 0.33 1.98 0.66 3 1 C2.524 3.972 1.593 5.673 0 8.312 C-3.407 14.17 -3.322 19.497 -1.75 25.926 C-0.728 28.751 1.099 30.706 3 33 C2.75 35.312 2.75 35.312 2 37 C-2.629 35.15 -3.969 32.367 -6.008 27.98 C-8.49 20.523 -8.043 13.362 -4.625 6.312 C-3.226 3.812 -2.031 2.031 0 0 Z " fill="#000000" transform="translate(50,63)"/>
<path d="M0 0 C4.739 1.862 7.099 5.109 9.25 9.625 C10.966 17.347 10.813 24.948 7 32 C4.812 35 4.812 35 3 37 C1.68 36.67 0.36 36.34 -1 36 C-0.567 35.261 -0.134 34.523 0.312 33.762 C4.167 26.739 6.483 21.043 5 13 C3.953 10.116 2.594 7.611 1 5 C0.323 3.672 -0.346 2.34 -1 1 C-0.67 0.67 -0.34 0.34 0 0 Z " fill="#000000" transform="translate(133,63)"/>
<path d="M0 0 C0.99 0 1.98 0 3 0 C2.578 2.533 2.211 4.627 0.938 6.875 C-0.463 10.049 -0.296 12.567 0 16 C0.937 18.03 1.929 20.037 3 22 C3 22.99 3 23.98 3 25 C0.508 24.633 -0.673 24.413 -2.266 22.398 C-4.525 17.755 -5.752 14.263 -5 9 C-2.337 2.337 -2.337 2.337 0 0 Z " fill="#000000" transform="translate(58,69)"/>
<path d="M0 0 C3.86 1.464 5.267 3.286 7 7 C8.268 12.266 7.997 15.96 6 21 C3.875 23.438 3.875 23.438 2 25 C1.01 24.67 0.02 24.34 -1 24 C-0.7 23.443 -0.399 22.886 -0.09 22.312 C2.745 16.624 3.578 13.205 2 7 C1.042 5.636 0.053 4.292 -1 3 C-0.67 2.01 -0.34 1.02 0 0 Z " fill="#000000" transform="translate(125,69)"/>
<path d="M0 0 C0.66 0.33 1.32 0.66 2 1 C2.345 2.842 2.6 4.701 2.812 6.562 C3.806 12.991 5.415 18.298 10.777 22.34 C15.925 25.398 20.059 26.396 26 26 C31.456 24.119 36.369 22.091 39.16 16.801 C41.409 11.537 42.578 6.696 43 1 C44.32 1.33 45.64 1.66 47 2 C46.699 10.197 45.958 16.888 40.098 22.977 C35.048 27.547 31.999 30 25 30 C25 34.29 25 38.58 25 43 C27.97 43.33 30.94 43.66 34 44 C34.495 45.98 34.495 45.98 35 48 C26.75 48 18.5 48 10 48 C10 47.01 10 46.02 10 45 C13.429 43.285 17.217 43.946 21 44 C20.505 37.565 20.505 37.565 20 31 C18.35 30.526 16.7 30.051 15 29.562 C7.872 26.987 3.193 22.364 -0.203 15.605 C-1.14 12.542 -1.231 9.949 -1.188 6.75 C-1.181 5.693 -1.175 4.636 -1.168 3.547 C-1 1 -1 1 0 0 Z " fill="#000000" transform="translate(70,79)"/>
</svg>
