<?xml version="1.0" encoding="UTF-8"?>
<!-- Generator: visioncortex VTracer 0.6.4 -->
<svg version="1.1" xmlns="http://www.w3.org/2000/svg" width="176" height="169">
<path d="M0 0 C1.512 -0.01 1.512 -0.01 3.055 -0.019 C4.147 -0.02 5.24 -0.022 6.366 -0.023 C7.485 -0.026 8.605 -0.029 9.759 -0.033 C12.131 -0.038 14.503 -0.04 16.875 -0.04 C20.508 -0.042 24.14 -0.06 27.772 -0.079 C30.074 -0.082 32.376 -0.084 34.678 -0.085 C35.767 -0.092 36.856 -0.1 37.977 -0.107 C39.499 -0.102 39.499 -0.102 41.051 -0.098 C41.942 -0.099 42.833 -0.101 43.751 -0.102 C46.351 0.165 47.958 0.747 50.155 2.145 C51.86 5.556 51.361 9.45 51.393 13.204 C51.401 14.104 51.409 15.004 51.418 15.931 C51.431 17.837 51.442 19.743 51.45 21.648 C51.467 24.568 51.511 27.486 51.555 30.405 C51.565 32.255 51.574 34.104 51.581 35.954 C51.598 36.829 51.616 37.704 51.634 38.606 C51.612 44.587 51.612 44.587 49.461 47.212 C46.707 48.327 44.797 48.41 41.831 48.27 C30.064 47.315 30.064 47.315 19.713 51.579 C17.37 54.494 17.37 54.494 15.67 57.579 C14.057 60.311 13.16 61.223 10.155 62.145 C9.495 61.815 8.835 61.485 8.155 61.145 C7.741 58.423 7.741 58.423 7.53 55.083 C7.455 53.978 7.38 52.873 7.303 51.735 C7.254 50.88 7.205 50.026 7.155 49.145 C5.817 49.107 5.817 49.107 4.452 49.067 C2.696 48.982 2.696 48.982 0.905 48.895 C-0.255 48.849 -1.416 48.802 -2.611 48.755 C-6.547 48.013 -7.508 47.374 -9.845 44.145 C-10.429 41.133 -10.382 38.17 -10.341 35.11 C-10.343 34.235 -10.344 33.36 -10.346 32.458 C-10.344 30.612 -10.333 28.765 -10.312 26.918 C-10.283 24.089 -10.291 21.262 -10.304 18.432 C-10.298 16.637 -10.29 14.843 -10.279 13.048 C-10.282 12.201 -10.285 11.354 -10.288 10.481 C-10.192 4.563 -10.192 4.563 -8.445 2.461 C-5.572 0.098 -3.645 0.016 0 0 Z M-5.845 5.145 C-5.934 8.03 -5.96 10.89 -5.943 13.774 C-5.941 14.638 -5.94 15.503 -5.939 16.393 C-5.933 19.165 -5.92 21.936 -5.908 24.708 C-5.903 26.582 -5.898 28.456 -5.894 30.331 C-5.883 34.936 -5.866 39.54 -5.845 44.145 C-4.702 44.206 -3.558 44.266 -2.38 44.329 C-0.889 44.413 0.601 44.498 2.092 44.583 C2.847 44.622 3.602 44.661 4.379 44.702 C10.042 45.032 10.042 45.032 11.155 46.145 C11.227 47.665 11.239 49.187 11.217 50.708 C11.208 51.534 11.199 52.36 11.19 53.212 C11.178 53.85 11.167 54.488 11.155 55.145 C14.617 53.723 16.006 52.134 18.096 49.083 C20.374 46.392 21.615 45.284 25.061 44.399 C28.427 44.136 31.716 44.088 35.092 44.145 C36.253 44.134 37.414 44.122 38.61 44.11 C41.46 44.087 44.305 44.099 47.155 44.145 C47.179 38.609 47.198 33.074 47.21 27.538 C47.215 25.653 47.222 23.768 47.23 21.883 C47.242 19.18 47.248 16.477 47.252 13.774 C47.258 12.926 47.263 12.078 47.268 11.205 C47.268 9.185 47.217 7.164 47.155 5.145 C45.514 3.504 43.636 4.018 41.375 4.016 C40.358 4.013 39.34 4.01 38.291 4.006 C36.63 4.009 36.63 4.009 34.936 4.012 C33.244 4.011 33.244 4.011 31.517 4.01 C29.126 4.009 26.736 4.011 24.345 4.015 C20.671 4.02 16.997 4.015 13.323 4.009 C11.006 4.009 8.69 4.01 6.374 4.012 C5.266 4.01 4.159 4.008 3.018 4.006 C2 4.009 0.983 4.013 -0.066 4.016 C-1.417 4.017 -1.417 4.017 -2.796 4.018 C-4.838 3.918 -4.838 3.918 -5.845 5.145 Z " fill="#000000" transform="translate(93.84521484375,49.854736328125)"/>
<path d="M0 0 C0.99 0.33 1.98 0.66 3 1 C3 8.26 3 15.52 3 23 C1.68 23 0.36 23 -1 23 C-1.029 19.354 -1.047 15.708 -1.062 12.062 C-1.071 11.022 -1.079 9.981 -1.088 8.908 C-1.093 7.424 -1.093 7.424 -1.098 5.91 C-1.103 4.994 -1.108 4.077 -1.114 3.133 C-1 1 -1 1 0 0 Z " fill="#000000" transform="translate(105,62)"/>
<path d="M0 0 C0.66 0.33 1.32 0.66 2 1 C2 8.26 2 15.52 2 23 C1.01 23.33 0.02 23.66 -1 24 C-2.084 18.927 -1.975 14.314 -1.625 9.188 C-1.581 8.412 -1.537 7.637 -1.492 6.838 C-1.133 1.133 -1.133 1.133 0 0 Z " fill="#000000" transform="translate(123,62)"/>
<path d="M0 0 C0.99 0.33 1.98 0.66 3 1 C3 4.63 3 8.26 3 12 C1.68 12 0.36 12 -1 12 C-1.027 10.188 -1.046 8.375 -1.062 6.562 C-1.074 5.553 -1.086 4.544 -1.098 3.504 C-1 1 -1 1 0 0 Z " fill="#000000" transform="translate(96,68)"/>
<path d="M0 0 C0.99 0 1.98 0 3 0 C4.123 2.245 4.134 3.515 4.125 6 C4.128 6.701 4.13 7.403 4.133 8.125 C4 10 4 10 3 12 C2.01 12 1.02 12 0 12 C0 8.04 0 4.08 0 0 Z " fill="#000000" transform="translate(113,68)"/>
<path d="M0 0 C0.99 0 1.98 0 3 0 C3 3.96 3 7.92 3 12 C1.68 11.67 0.36 11.34 -1 11 C-1.027 9.542 -1.046 8.083 -1.062 6.625 C-1.074 5.813 -1.086 5.001 -1.098 4.164 C-1 2 -1 2 0 0 Z " fill="#000000" transform="translate(131,68)"/>
<path d="M0 0 C0.99 0.33 1.98 0.66 3 1 C3 6.61 3 12.22 3 18 C4.32 18 5.64 18 7 18 C7 18.99 7 19.98 7 21 C5.805 21.03 5.805 21.03 4.585 21.06 C0.973 21.155 -2.638 21.265 -6.25 21.375 C-8.131 21.421 -8.131 21.421 -10.051 21.469 C-11.256 21.507 -12.461 21.546 -13.703 21.586 C-14.813 21.617 -15.924 21.649 -17.067 21.681 C-19.916 21.991 -21.623 22.435 -24 24 C-25.351 26.702 -25.339 29.118 -25.562 32.125 C-25.646 33.221 -25.73 34.316 -25.816 35.445 C-25.877 36.288 -25.938 37.131 -26 38 C-27.98 38.495 -27.98 38.495 -30 39 C-30 42.96 -30 46.92 -30 51 C-28.68 51 -27.36 51 -26 51 C-25.939 51.843 -25.879 52.686 -25.816 53.555 C-25.733 54.65 -25.649 55.746 -25.562 56.875 C-25.441 58.511 -25.441 58.511 -25.316 60.18 C-25.17 62.947 -25.17 62.947 -24 65 C-8.49 65 7.02 65 23 65 C24.894 60.266 25.093 57.918 25 53 C25.495 52.01 25.495 52.01 26 51 C27.32 51 28.64 51 30 51 C30 49.35 30 47.7 30 46 C30.66 45.67 31.32 45.34 32 45 C32.66 45.33 33.32 45.66 34 46 C34.25 48.812 34.25 48.812 34 52 C33.346 52.459 32.693 52.918 32.02 53.391 C29.779 54.828 29.779 54.828 29.496 57.34 C29.477 58.197 29.457 59.054 29.438 59.938 C29.334 63.956 28.811 66.044 26 69 C23.17 69.943 21.361 70.141 18.424 70.177 C17.5 70.19 16.575 70.203 15.622 70.216 C14.626 70.223 13.629 70.231 12.602 70.238 C11.574 70.246 10.547 70.254 9.489 70.263 C7.315 70.277 5.142 70.287 2.968 70.295 C-0.355 70.312 -3.677 70.356 -7 70.4 C-9.112 70.411 -11.224 70.419 -13.336 70.426 C-14.329 70.443 -15.322 70.461 -16.345 70.479 C-20.711 70.465 -23.287 70.423 -27.104 68.161 C-29.912 64.96 -30.122 62.412 -30.062 58.312 C-30.053 57.504 -30.044 56.696 -30.035 55.863 C-30.018 54.941 -30.018 54.941 -30 54 C-30.99 54 -31.98 54 -33 54 C-34.517 50.966 -34.225 47.826 -34.25 44.5 C-34.271 43.81 -34.291 43.121 -34.312 42.41 C-34.328 40.406 -34.328 40.406 -34 37 C-33.01 36.34 -32.02 35.68 -31 35 C-30.414 32.018 -30.177 29.07 -29.918 26.043 C-28.934 22.781 -27.757 20.969 -25.008 18.918 C-20.778 16.985 -16.176 17.497 -11.625 17.688 C-10.603 17.71 -9.581 17.733 -8.527 17.756 C-6.017 17.815 -3.509 17.897 -1 18 C-1.012 16.784 -1.023 15.569 -1.035 14.316 C-1.045 12.732 -1.054 11.147 -1.062 9.562 C-1.071 8.76 -1.079 7.958 -1.088 7.131 C-1.097 5.087 -1.052 3.043 -1 1 C-0.67 0.67 -0.34 0.34 0 0 Z " fill="#000000" transform="translate(74,70)"/>
<path d="M0 0 C2.438 1.625 2.438 1.625 4 4 C4.562 7.438 4.562 7.438 4 11 C1.55 14.387 0.136 15.787 -4 16.562 C-7.805 15.849 -9.412 14.884 -12 12 C-13.062 8.562 -13.062 8.562 -13 5 C-9.253 -0.943 -6.751 -1.513 0 0 Z M-9 5 C-9.333 7.5 -9.333 7.5 -9 10 C-7.173 12.249 -7.173 12.249 -4.5 12.25 C-1.827 12.249 -1.827 12.249 0 10 C0.333 7.5 0.333 7.5 0 5 C-1.827 2.751 -1.827 2.751 -4.5 2.75 C-7.173 2.751 -7.173 2.751 -9 5 Z " fill="#000000" transform="translate(66,104)"/>
<path d="M0 0 C2.643 2.114 4.445 3.925 6 6.938 C6 10.176 4.658 12.276 3 15 C-0.721 17.48 -2.598 17.463 -7 17 C-9.964 14.972 -10.823 13.508 -12 10.125 C-12 5.987 -10.573 4.162 -8 1 C-5.111 -0.444 -3.204 -0.377 0 0 Z M-6.812 5.188 C-8.275 7.008 -8.275 7.008 -7.75 9.625 C-7.223 11.931 -7.223 11.931 -6 13 C-4 13.041 -2 13.043 0 13 C1.29 10.734 1.29 10.734 2 8 C1.01 5.596 1.01 5.596 -1 4 C-4.804 3.635 -4.804 3.635 -6.812 5.188 Z " fill="#000000" transform="translate(89,103)"/>
<path d="M0 0 C0.754 0.005 1.508 0.009 2.285 0.014 C4.148 0.025 6.012 0.043 7.875 0.062 C8.205 1.382 8.535 2.702 8.875 4.062 C2.935 4.062 -3.005 4.062 -9.125 4.062 C-9.455 3.072 -9.785 2.083 -10.125 1.062 C-6.937 -0.532 -3.496 -0.039 0 0 Z " fill="#000000" transform="translate(74.125,126.9375)"/>
</svg>
