<?xml version="1.0" encoding="UTF-8"?>
<!-- Generator: visioncortex VTracer 0.6.4 -->
<svg version="1.1" xmlns="http://www.w3.org/2000/svg" width="176" height="169">
<path d="M0 0 C0.782 -0.005 1.565 -0.01 2.371 -0.015 C4.965 -0.03 7.56 -0.036 10.155 -0.042 C11.956 -0.048 13.757 -0.054 15.559 -0.059 C19.339 -0.07 23.119 -0.076 26.9 -0.079 C31.742 -0.085 36.584 -0.109 41.426 -0.137 C45.149 -0.156 48.871 -0.161 52.593 -0.162 C54.378 -0.165 56.163 -0.173 57.948 -0.187 C60.448 -0.204 62.946 -0.202 65.445 -0.195 C66.182 -0.205 66.918 -0.214 67.676 -0.223 C72.102 -0.187 74.912 0.417 78.417 3.161 C80.651 6.513 80.677 7.644 80.707 11.563 C80.72 12.668 80.733 13.773 80.746 14.911 C80.748 16.105 80.75 17.298 80.753 18.528 C80.763 20.369 80.763 20.369 80.773 22.246 C80.783 24.844 80.788 27.441 80.787 30.039 C80.792 34.013 80.828 37.987 80.866 41.962 C80.872 44.484 80.876 47.006 80.878 49.528 C80.892 50.718 80.906 51.908 80.921 53.134 C80.876 61.383 80.876 61.383 78.513 65.388 C74.744 68.576 72.175 68.268 67.292 68.224 C66.01 68.215 64.729 68.206 63.409 68.196 C62.422 68.185 61.434 68.173 60.417 68.161 C60.198 68.703 59.978 69.244 59.753 69.802 C57.967 72.955 55.58 75.366 53.042 77.911 C52.56 78.418 52.078 78.924 51.581 79.446 C50.143 80.896 50.143 80.896 47.417 83.161 C46.097 83.161 44.777 83.161 43.417 83.161 C43.417 78.211 43.417 73.261 43.417 68.161 C41.437 68.161 39.457 68.161 37.417 68.161 C37.417 66.841 37.417 65.521 37.417 64.161 C38.896 64.134 40.375 64.115 41.854 64.099 C43.09 64.081 43.09 64.081 44.35 64.063 C46.417 64.161 46.417 64.161 47.417 65.161 C47.65 66.843 47.829 68.532 47.979 70.224 C48.063 71.143 48.147 72.062 48.233 73.009 C48.324 74.074 48.324 74.074 48.417 75.161 C49.037 74.379 49.657 73.596 50.296 72.79 C54.788 67.525 58.333 63.653 65.506 63.079 C68.478 63.016 71.445 63.091 74.417 63.161 C75.669 62.131 75.669 62.131 75.537 59.915 C75.535 58.922 75.533 57.93 75.53 56.907 C75.53 55.786 75.53 54.665 75.53 53.51 C75.525 52.29 75.52 51.07 75.514 49.813 C75.513 48.572 75.512 47.33 75.51 46.051 C75.505 42.745 75.496 39.439 75.485 36.133 C75.475 32.762 75.471 29.39 75.466 26.019 C75.455 19.399 75.438 12.78 75.417 6.161 C72.349 4.627 69.136 5.023 65.77 5.032 C64.981 5.03 64.193 5.028 63.38 5.026 C60.766 5.022 58.152 5.025 55.538 5.028 C53.727 5.028 51.916 5.027 50.105 5.025 C46.308 5.024 42.511 5.026 38.714 5.031 C33.835 5.036 28.957 5.033 24.079 5.027 C20.339 5.024 16.6 5.025 12.86 5.027 C11.061 5.028 9.262 5.027 7.462 5.025 C4.953 5.022 2.443 5.026 -0.066 5.032 C-0.817 5.03 -1.567 5.028 -2.341 5.026 C-5.75 4.735 -5.75 4.735 -8.583 6.161 C-8.706 7.94 -8.761 9.724 -8.789 11.507 C-8.809 12.648 -8.828 13.789 -8.849 14.965 C-8.866 16.207 -8.882 17.448 -8.9 18.728 C-8.92 19.991 -8.941 21.255 -8.963 22.557 C-9.017 25.922 -9.067 29.288 -9.115 32.653 C-9.166 36.085 -9.221 39.516 -9.277 42.948 C-9.384 49.686 -9.485 56.423 -9.583 63.161 C-3.643 63.491 2.297 63.821 8.417 64.161 C8.747 65.481 9.077 66.801 9.417 68.161 C6.519 68.297 3.628 68.395 0.729 68.474 C-0.087 68.516 -0.904 68.557 -1.745 68.601 C-2.939 68.625 -2.939 68.625 -4.157 68.649 C-5.249 68.689 -5.249 68.689 -6.363 68.729 C-10.164 67.757 -11.345 66.409 -13.583 63.161 C-14.327 58.818 -14.26 54.523 -14.212 50.126 C-14.215 48.855 -14.217 47.584 -14.219 46.275 C-14.218 43.59 -14.208 40.908 -14.18 38.223 C-14.146 34.788 -14.152 31.353 -14.171 27.917 C-14.184 24.633 -14.166 21.348 -14.15 18.063 C-14.155 16.831 -14.16 15.599 -14.165 14.329 C-14.149 13.184 -14.133 12.04 -14.117 10.86 C-14.111 9.854 -14.104 8.847 -14.098 7.81 C-13.447 4.459 -12.193 3.29 -9.583 1.161 C-6.532 -0.364 -3.348 0.005 0 0 Z " fill="#000000" transform="translate(56.583251953125,34.8388671875)"/>
<path d="M0 0 C0.99 0.33 1.98 0.66 3 1 C3 9.58 3 18.16 3 27 C1.68 27 0.36 27 -1 27 C-1.029 22.875 -1.047 18.75 -1.062 14.625 C-1.071 13.449 -1.079 12.274 -1.088 11.062 C-1.091 9.941 -1.094 8.82 -1.098 7.664 C-1.103 6.627 -1.108 5.59 -1.114 4.522 C-1 2 -1 2 0 0 Z " fill="#000000" transform="translate(72,55)"/>
<path d="M0 0 C2.128 1.708 2.934 2.57 3.356 5.312 C3.347 6.199 3.338 7.086 3.328 8 C3.323 8.969 3.318 9.939 3.312 10.938 C3.292 11.948 3.271 12.959 3.25 14 C3.245 15.011 3.24 16.021 3.234 17.062 C3.155 24.535 3.155 24.535 2 28 C1.01 28 0.02 28 -1 28 C-1.029 23.521 -1.047 19.042 -1.062 14.562 C-1.071 13.283 -1.079 12.004 -1.088 10.686 C-1.091 9.471 -1.094 8.256 -1.098 7.004 C-1.103 5.878 -1.108 4.752 -1.114 3.592 C-1 1 -1 1 0 0 Z " fill="#000000" transform="translate(108,55)"/>
<path d="M0 0 C0.99 0.33 1.98 0.66 3 1 C3 8.26 3 15.52 3 23 C1.68 23 0.36 23 -1 23 C-1.029 19.354 -1.047 15.708 -1.062 12.062 C-1.071 11.022 -1.079 9.981 -1.088 8.908 C-1.093 7.424 -1.093 7.424 -1.098 5.91 C-1.103 4.994 -1.108 4.077 -1.114 3.133 C-1 1 -1 1 0 0 Z " fill="#000000" transform="translate(90,57)"/>
<path d="M0 0 C0.99 0 1.98 0 3 0 C3 4.62 3 9.24 3 14 C2.01 14 1.02 14 0 14 C-0.195 12.23 -0.381 10.459 -0.562 8.688 C-0.667 7.701 -0.771 6.715 -0.879 5.699 C-1 3 -1 3 0 0 Z " fill="#000000" transform="translate(63,62)"/>
<path d="M0 0 C0.99 0 1.98 0 3 0 C3 4.62 3 9.24 3 14 C1.68 14 0.36 14 -1 14 C-1.027 11.854 -1.046 9.708 -1.062 7.562 C-1.074 6.368 -1.086 5.173 -1.098 3.941 C-1 1 -1 1 0 0 Z " fill="#000000" transform="translate(81,62)"/>
<path d="M0 0 C0.99 0 1.98 0 3 0 C3 4.62 3 9.24 3 14 C2.01 14 1.02 14 0 14 C-1.244 11.512 -1.133 9.773 -1.125 7 C-1.128 6.113 -1.13 5.226 -1.133 4.312 C-1 2 -1 2 0 0 Z " fill="#000000" transform="translate(116,62)"/>
<path d="M0 0 C0.99 0 1.98 0 3 0 C4.37 2.739 4.126 4.971 4 8 C3.67 8.66 3.34 9.32 3 10 C2.01 10 1.02 10 0 10 C0 6.7 0 3.4 0 0 Z " fill="#000000" transform="translate(98,64)"/>
<path d="M0 0 C3.062 1.798 4.567 3.238 6.312 6.312 C7.848 12.315 6.871 17.269 5 23 C5.949 23.619 6.898 24.237 7.875 24.875 C11 27 11 27 13 29 C13.125 32.625 13.125 32.625 13 36 C12.01 36 11.02 36 10 36 C9.814 35.072 9.629 34.144 9.438 33.188 C8.252 29.784 8.252 29.784 5.062 28.125 C-0.982 26 -7.435 26.221 -13.5 28.062 C-16.888 30.688 -17.632 32.973 -19 37 C-20.562 35.812 -20.562 35.812 -22 34 C-22 30.337 -21.036 29.041 -18.625 26.25 C-16 24 -16 24 -13 23 C-13.33 22.196 -13.66 21.391 -14 20.562 C-15.646 14.699 -16.075 10.038 -13.188 4.562 C-9.306 0.016 -5.797 -0.917 0 0 Z M-9.375 5.438 C-11.785 9.237 -11.893 12.627 -11 17 C-9.081 20.254 -9.081 20.254 -6 22 C-2.846 22.336 -2.846 22.336 0 21 C2.502 18.165 2.968 16.254 3.438 12.5 C2.92 8.358 2.146 6.732 -1 4 C-4.59 3.327 -6.251 3.547 -9.375 5.438 Z " fill="#000000" transform="translate(84,95)"/>
</svg>
