<?xml version="1.0" encoding="UTF-8"?>
<!-- Generator: visioncortex VTracer 0.6.4 -->
<svg version="1.1" xmlns="http://www.w3.org/2000/svg" width="176" height="169">
<path d="M0 0 C0.89 -0.004 1.779 -0.009 2.696 -0.013 C4.569 -0.019 6.443 -0.019 8.316 -0.015 C11.178 -0.012 14.039 -0.035 16.9 -0.061 C18.725 -0.063 20.55 -0.064 22.375 -0.062 C23.227 -0.072 24.079 -0.081 24.957 -0.09 C30.119 -0.05 33.788 0.468 37.621 4.301 C37.737 6.81 37.789 9.292 37.798 11.802 C37.808 12.98 37.808 12.98 37.818 14.182 C37.838 16.792 37.849 19.402 37.859 22.012 C37.863 22.901 37.868 23.79 37.872 24.706 C37.893 29.41 37.907 34.114 37.916 38.818 C37.927 43.687 37.962 48.555 38.001 53.423 C38.028 57.158 38.036 60.893 38.04 64.628 C38.044 66.423 38.056 68.218 38.075 70.013 C38.099 72.523 38.098 75.031 38.091 77.541 C38.104 78.286 38.117 79.031 38.13 79.798 C38.097 82.994 38.045 84.824 35.88 87.262 C33.386 88.409 31.745 88.681 29.008 88.689 C28.1 88.698 27.192 88.708 26.257 88.718 C24.798 88.709 24.798 88.709 23.309 88.699 C21.8 88.704 21.8 88.704 20.26 88.708 C18.136 88.71 16.011 88.704 13.886 88.692 C10.633 88.676 7.382 88.692 4.129 88.711 C2.064 88.709 -0.001 88.705 -2.066 88.699 C-3.039 88.705 -4.012 88.711 -5.015 88.718 C-5.923 88.708 -6.83 88.699 -7.766 88.689 C-8.96 88.685 -8.96 88.685 -10.178 88.682 C-12.962 88.2 -14.33 87.221 -16.379 85.301 C-17.571 81.724 -17.525 78.459 -17.504 74.738 C-17.508 74.053 -17.512 73.368 -17.516 72.662 C-17.506 67.554 -17.506 67.554 -16.379 65.301 C-15.389 65.301 -14.399 65.301 -13.379 65.301 C-13.049 71.571 -12.719 77.841 -12.379 84.301 C2.801 84.301 17.981 84.301 33.621 84.301 C33.621 58.231 33.621 32.161 33.621 5.301 C26.217 5.28 18.812 5.26 11.184 5.238 C8.843 5.229 6.503 5.22 4.092 5.211 C2.249 5.208 0.406 5.205 -1.438 5.203 C-2.404 5.198 -3.371 5.193 -4.366 5.188 C-5.28 5.188 -6.193 5.187 -7.135 5.187 C-7.932 5.185 -8.729 5.183 -9.55 5.181 C-11.398 5.1 -11.398 5.1 -12.379 6.301 C-12.613 8.15 -12.792 10.006 -12.941 11.863 C-13.025 12.875 -13.109 13.887 -13.195 14.93 C-13.256 15.712 -13.316 16.495 -13.379 17.301 C-14.369 17.301 -15.359 17.301 -16.379 17.301 C-17.554 11.662 -17.495 7.729 -15.379 2.301 C-10.396 -0.111 -5.415 -0.006 0 0 Z " fill="#000000" transform="translate(106.37890625,36.69921875)"/>
<path d="M0 0 C0.99 0 1.98 0 3 0 C2.979 0.669 2.959 1.338 2.938 2.027 C3.112 10.159 5.525 16.072 9.293 23.123 C12.009 28.336 12.009 28.336 11.961 31.914 C11 34 11 34 7.5 35.438 C5.767 36.211 5.767 36.211 4 37 C2.943 40.084 2.943 40.084 3 43 C0.03 43 -2.94 43 -6 43 C-6 43.66 -6 44.32 -6 45 C-5.237 45.268 -4.474 45.536 -3.688 45.812 C-1.126 46.944 0.197 47.912 2 50 C1.687 50.557 1.374 51.114 1.051 51.688 C-0.081 54.179 -0.438 56.297 -0.812 59 C-1.469 62.347 -1.894 63.86 -4 66.625 C-7.77 68.353 -10.617 68.147 -14.695 67.75 C-17.11 67.782 -17.11 67.782 -18.762 69.609 C-20.299 72.577 -20.507 74.922 -20.688 78.25 C-20.753 79.328 -20.819 80.405 -20.887 81.516 C-20.924 82.335 -20.961 83.155 -21 84 C-22.32 84 -23.64 84 -25 84 C-25.109 82.126 -25.186 80.251 -25.25 78.375 C-25.296 77.331 -25.343 76.287 -25.391 75.211 C-24.91 71.26 -23.387 69.129 -21 66 C-22.12 65.481 -23.24 64.961 -24.395 64.426 C-25.868 63.722 -27.34 63.018 -28.812 62.312 C-29.55 61.973 -30.288 61.633 -31.049 61.283 C-35.366 59.193 -38.096 57.641 -40 53 C-40.188 49.688 -40.188 49.688 -40 47 C-39.01 47 -38.02 47 -37 47 C-36.706 48.227 -36.412 49.454 -36.109 50.719 C-34.685 54.501 -33.228 55.835 -29.578 57.531 C-27.814 58.218 -26.037 58.874 -24.25 59.5 C-23.368 59.845 -22.487 60.191 -21.578 60.547 C-16.512 62.447 -12.404 63.413 -7 63 C-6.663 61.397 -6.331 59.792 -6 58.188 C-5.722 56.848 -5.722 56.848 -5.438 55.48 C-4.913 52.927 -4.913 52.927 -5 50 C-5.784 49.567 -6.567 49.134 -7.375 48.688 C-10 47 -10 47 -11.375 43.938 C-12 41 -12 41 -11 39 C-7.37 39 -3.74 39 0 39 C0 37.02 0 35.04 0 33 C2.31 32.34 4.62 31.68 7 31 C5.673 26.664 3.925 22.879 1.812 18.875 C-1.349 12.222 -1.415 7.139 0 0 Z " fill="#000000" transform="translate(79,40)"/>
<path d="M0 0 C2.97 0 5.94 0 9 0 C9 1.32 9 2.64 9 4 C6.03 4 3.06 4 0 4 C0 2.68 0 1.36 0 0 Z " fill="#000000" transform="translate(112,44)"/>
<path d="M0 0 C2.746 0.379 3.8 0.778 5.688 2.875 C8.474 7.387 8.605 11.852 8 17 C7.052 19.932 5.972 22.614 4 25 C1.859 25.719 1.859 25.719 0 26 C0.419 23.484 0.805 21.363 2.02 19.105 C3.689 15.519 3.478 11.874 3 8 C1.611 5.182 1.611 5.182 0 3 C0 2.01 0 1.02 0 0 Z " fill="#000000" transform="translate(98,73)"/>
<path d="M0 0 C0.99 0 1.98 0 3 0 C5.48 3.721 5.463 5.598 5 10 C3 12.438 3 12.438 1 14 C0.34 13.01 -0.32 12.02 -1 11 C-0.67 10.67 -0.34 10.34 0 10 C0.146 6.634 0.072 4.216 -1 1 C-0.67 0.67 -0.34 0.34 0 0 Z " fill="#000000" transform="translate(92,79)"/>
<path d="M0 0 C3.3 0 6.6 0 10 0 C10 0.99 10 1.98 10 3 C6.7 3 3.4 3 0 3 C0 2.01 0 1.02 0 0 Z " fill="#000000" transform="translate(112,115)"/>
</svg>
