<?xml version="1.0" encoding="UTF-8"?>
<!-- Generator: visioncortex VTracer 0.6.4 -->
<svg version="1.1" xmlns="http://www.w3.org/2000/svg" width="176" height="169">
<path d="M0 0 C0.854 -0.005 1.708 -0.011 2.588 -0.016 C5.414 -0.029 8.24 -0.02 11.066 -0.01 C13.028 -0.012 14.989 -0.015 16.951 -0.019 C21.063 -0.023 25.176 -0.017 29.288 -0.003 C34.564 0.014 39.84 0.004 45.117 -0.014 C49.167 -0.024 53.218 -0.021 57.269 -0.013 C59.215 -0.011 61.16 -0.014 63.106 -0.021 C65.824 -0.028 68.54 -0.017 71.258 0 C72.065 -0.006 72.873 -0.012 73.704 -0.018 C79.049 0.043 79.049 0.043 81.627 1.579 C82.999 4.056 83.017 5.899 83.033 8.73 C83.046 9.821 83.058 10.912 83.071 12.037 C83.068 13.215 83.066 14.393 83.062 15.607 C83.068 16.816 83.073 18.026 83.078 19.272 C83.085 21.831 83.083 24.389 83.075 26.948 C83.066 30.873 83.095 34.796 83.127 38.72 C83.129 41.203 83.128 43.686 83.125 46.169 C83.136 47.348 83.147 48.526 83.159 49.74 C83.145 51.376 83.145 51.376 83.131 53.046 C83.13 54.008 83.13 54.969 83.13 55.96 C82.629 58.388 82.629 58.388 80.798 60.205 C77.758 61.863 75.256 61.653 71.816 61.638 C65.546 61.963 65.546 61.963 60.629 65.513 C59.593 66.776 58.593 68.069 57.629 69.388 C56.556 70.709 55.473 72.022 54.379 73.326 C53.92 73.912 53.461 74.499 52.988 75.103 C51.629 76.388 51.629 76.388 48.629 76.388 C48.459 74.993 48.293 73.597 48.129 72.201 C47.99 71.035 47.99 71.035 47.848 69.845 C47.627 67.368 47.629 64.875 47.629 62.388 C44.329 62.058 41.029 61.728 37.629 61.388 C37.629 60.068 37.629 58.748 37.629 57.388 C42.249 57.388 46.869 57.388 51.629 57.388 C51.629 61.018 51.629 64.648 51.629 68.388 C52.578 67.625 53.526 66.862 54.504 66.076 C55.038 65.646 55.571 65.217 56.121 64.775 C57.882 63.265 57.882 63.265 59.629 60.388 C60.289 60.388 60.949 60.388 61.629 60.388 C61.959 59.398 62.289 58.408 62.629 57.388 C67.579 57.058 72.529 56.728 77.629 56.388 C77.959 39.228 78.289 22.068 78.629 4.388 C50.249 4.388 21.869 4.388 -7.371 4.388 C-7.041 21.548 -6.711 38.708 -6.371 56.388 C-2.741 56.718 0.889 57.048 4.629 57.388 C4.629 58.708 4.629 60.028 4.629 61.388 C2.713 61.497 0.796 61.574 -1.121 61.638 C-2.188 61.685 -3.256 61.731 -4.355 61.779 C-8.132 61.29 -9.027 60.327 -11.371 57.388 C-11.872 54.877 -11.872 54.877 -11.873 52.025 C-11.882 50.954 -11.892 49.882 -11.901 48.779 C-11.89 47.628 -11.879 46.477 -11.867 45.291 C-11.869 44.105 -11.87 42.919 -11.872 41.697 C-11.87 39.191 -11.858 36.686 -11.838 34.18 C-11.809 30.337 -11.817 26.495 -11.83 22.652 C-11.824 20.219 -11.815 17.786 -11.805 15.353 C-11.808 14.2 -11.811 13.047 -11.814 11.859 C-11.801 10.791 -11.788 9.723 -11.775 8.622 C-11.767 7.211 -11.767 7.211 -11.759 5.772 C-11.371 3.388 -11.371 3.388 -10.369 1.585 C-7.125 -0.359 -3.674 -0.028 0 0 Z " fill="#000000" transform="translate(57.37109375,28.61181640625)"/>
<path d="M0 0 C0.66 0 1.32 0 2 0 C4.644 20.067 4.644 20.067 2 28 C1.01 28 0.02 28 -1 28 C-1.029 23.521 -1.047 19.042 -1.062 14.562 C-1.071 13.283 -1.079 12.004 -1.088 10.686 C-1.091 9.471 -1.094 8.256 -1.098 7.004 C-1.103 5.878 -1.108 4.752 -1.114 3.592 C-1 1 -1 1 0 0 Z " fill="#000000" transform="translate(76,44)"/>
<path d="M0 0 C0.99 0.33 1.98 0.66 3 1 C3 9.58 3 18.16 3 27 C1.68 27 0.36 27 -1 27 C-1.029 22.688 -1.047 18.375 -1.062 14.062 C-1.071 12.831 -1.079 11.599 -1.088 10.33 C-1.091 9.16 -1.094 7.99 -1.098 6.785 C-1.103 5.701 -1.108 4.617 -1.114 3.5 C-1 1 -1 1 0 0 Z " fill="#000000" transform="translate(111,44)"/>
<path d="M0 0 C0.66 0.33 1.32 0.66 2 1 C2 8.26 2 15.52 2 23 C0.68 23 -0.64 23 -2 23 C-2 15.74 -2 8.48 -2 1 C-1.34 0.67 -0.68 0.34 0 0 Z " fill="#000000" transform="translate(94,46)"/>
<path d="M0 0 C1.32 0.33 2.64 0.66 4 1 C4 4.96 4 8.92 4 13 C2.68 13.33 1.36 13.66 0 14 C0 9.38 0 4.76 0 0 Z " fill="#000000" transform="translate(66,51)"/>
<path d="M0 0 C0.99 0 1.98 0 3 0 C3 4.62 3 9.24 3 14 C2.01 14 1.02 14 0 14 C-0.196 12.418 -0.382 10.834 -0.562 9.25 C-0.667 8.368 -0.771 7.487 -0.879 6.578 C-0.995 4.116 -0.736 2.335 0 0 Z " fill="#000000" transform="translate(84,51)"/>
<path d="M0 0 C1.32 0.33 2.64 0.66 4 1 C4.081 2.958 4.139 4.916 4.188 6.875 C4.222 7.966 4.257 9.056 4.293 10.18 C4.196 11.11 4.1 12.041 4 13 C3.01 13.66 2.02 14.32 1 15 C0 14 0 14 -0.098 10.84 C-0.08 8.908 -0.08 8.908 -0.062 6.938 C-0.053 5.647 -0.044 4.357 -0.035 3.027 C-0.024 2.028 -0.012 1.029 0 0 Z " fill="#000000" transform="translate(119,51)"/>
<path d="M0 0 C0.99 0.33 1.98 0.66 3 1 C3 3.64 3 6.28 3 9 C1.68 9 0.36 9 -1 9 C-1.098 2.848 -1.098 2.848 -1 1 C-0.67 0.67 -0.34 0.34 0 0 Z " fill="#000000" transform="translate(102,53)"/>
<path d="M0 0 C3.539 1.651 4.811 2.716 7 6 C7.493 10.109 7.417 14.24 7.438 18.375 C7.47 19.512 7.503 20.649 7.537 21.82 C7.597 31.16 7.597 31.16 4.598 34.227 C0.745 36.857 -1.297 37.452 -6 37 C-9.984 34.855 -12.348 33.215 -14 29 C-14.465 25.387 -14.416 21.765 -14.438 18.125 C-14.47 17.144 -14.503 16.163 -14.537 15.152 C-14.597 7.06 -14.597 7.06 -11.598 3.367 C-7.617 -0.26 -5.367 -0.364 0 0 Z M-10 8 C-10.602 11.507 -10.558 14.95 -10.5 18.5 C-10.515 19.45 -10.531 20.4 -10.547 21.379 C-10.55 26.85 -10.55 26.85 -8.191 31.652 C-5.923 33.304 -5.923 33.304 -2.438 33.062 C1.031 32.33 1.031 32.33 2.688 29.996 C4.471 25.924 4.477 22.397 4.438 18 C4.457 17.206 4.477 16.412 4.498 15.594 C4.495 11.582 4.287 9.473 2.16 5.973 C0.104 3.747 0.104 3.747 -3 3.438 C-6.838 4.157 -7.748 4.798 -10 8 Z " fill="#000000" transform="translate(82,75)"/>
<path d="M0 0 C0.99 0.33 1.98 0.66 3 1 C3.773 2.891 3.773 2.891 4.375 5.25 C6.001 10.577 8.468 13.453 13.25 16.375 C18.684 17.61 25.145 16.795 30 14 C31.614 11.209 32.635 8.31 33.625 5.25 C33.885 4.451 34.146 3.652 34.414 2.828 C34.607 2.225 34.801 1.622 35 1 C35.99 1 36.98 1 38 1 C38.757 6.926 37.261 10.162 33.785 14.977 C31.104 18.015 28.732 19.411 25 21 C23.68 21 22.36 21 21 21 C21 23.64 21 26.28 21 29 C22.98 29 24.96 29 27 29 C26.67 30.32 26.34 31.64 26 33 C23.709 33.081 21.417 33.139 19.125 33.188 C17.211 33.24 17.211 33.24 15.258 33.293 C14.183 33.196 13.108 33.1 12 33 C11.34 32.01 10.68 31.02 10 30 C11 29 11 29 14.062 28.938 C15.517 28.968 15.517 28.968 17 29 C16.67 26.69 16.34 24.38 16 22 C14.824 21.67 13.649 21.34 12.438 21 C6.127 18.635 2.315 13.794 -0.5 7.812 C-1.027 4.85 -0.844 2.871 0 0 Z " fill="#000000" transform="translate(60,99)"/>
</svg>
