<?xml version="1.0" encoding="UTF-8"?>
<!-- Generator: visioncortex VTracer 0.6.4 -->
<svg version="1.1" xmlns="http://www.w3.org/2000/svg" width="176" height="169">
<path d="M0 0 C9.488 7.418 15.593 14.924 17.289 27.07 C17.646 35.08 14.856 42.716 10 49 C9.319 49.969 8.639 50.939 7.938 51.938 C1.544 59.364 -8.501 64.21 -18 66 C-22.474 66.292 -26.956 66.411 -31.439 66.322 C-38.458 66.36 -41.766 68.529 -47 73 C-49.574 74.461 -49.574 74.461 -51.688 75.375 C-52.393 75.692 -53.098 76.009 -53.824 76.336 C-56 77 -56 77 -61 77 C-60.34 70.4 -59.68 63.8 -59 57 C-60.32 56.34 -61.64 55.68 -63 55 C-69.632 48.873 -74.424 42.512 -75.375 33.414 C-75.621 25.725 -75.191 19.536 -71 13 C-70.526 12.242 -70.051 11.484 -69.562 10.703 C-62.454 0.518 -51.434 -4.676 -39.621 -7.586 C-25.952 -9.745 -11.708 -7.551 0 0 Z M-65.305 10.891 C-70.85 17.79 -71.776 24.497 -71.504 33.277 C-70.593 40.007 -68.004 45.636 -62.598 49.891 C-61.782 50.484 -60.966 51.077 -60.125 51.688 C-57.76 53.569 -56.235 54.885 -55.6 57.901 C-55.217 62.63 -55.537 67.287 -56 72 C-51.752 71.45 -49.19 70.013 -45.75 67.5 C-44.879 66.871 -44.007 66.242 -43.109 65.594 C-41.124 64.169 -41.124 64.169 -40 63 C-37.875 62.979 -35.749 63.01 -33.625 63.062 C-18.907 63.122 -5.973 59.849 4.867 49.41 C10.601 42.931 13.415 36.185 13.273 27.562 C12.349 18.897 8.519 11.704 2 6 C-18.283 -9.391 -47.831 -7.927 -65.305 10.891 Z " fill="#000000" transform="translate(118,41)"/>
<path d="M0 0 C2.528 1.544 3.612 2.688 5.094 5.289 C5.785 8.256 6.041 11.189 6.219 14.227 C6.288 15.389 6.288 15.389 6.359 16.576 C6.514 23.024 5.35 27.911 0.781 32.727 C-2.525 34.649 -4.136 34.905 -7.906 34.289 C-11.894 32.142 -14.24 30.5 -15.906 26.289 C-16.34 22.987 -16.276 19.68 -16.281 16.352 C-16.306 15.458 -16.33 14.564 -16.355 13.643 C-16.375 9.345 -16.323 6.955 -14 3.242 C-9.725 -0.746 -5.721 -2.134 0 0 Z M-10.074 4.715 C-12.834 8.593 -12.49 12.145 -12.406 16.789 C-12.422 17.644 -12.437 18.498 -12.453 19.379 C-12.428 23.327 -12.398 25.585 -10.098 28.879 C-7.841 30.603 -7.841 30.603 -4.344 30.352 C-0.854 29.623 -0.854 29.623 0.785 27.191 C2.425 23.553 2.493 20.771 2.469 16.789 C2.48 14.855 2.48 14.855 2.492 12.883 C2.046 8.859 0.976 6.171 -1.906 3.289 C-5.268 2.916 -7.208 2.83 -10.074 4.715 Z " fill="#000000" transform="translate(93.90625,44.7109375)"/>
<path d="M0 0 C0.99 0.33 1.98 0.66 3 1 C3.773 2.891 3.773 2.891 4.375 5.25 C6.001 10.577 8.468 13.453 13.25 16.375 C18.814 17.639 23.361 16.928 28.312 14.125 C32.244 10.434 33.503 5.028 35 0 C35.99 0 36.98 0 38 0 C38.695 6.373 37.57 9.831 33.785 15.012 C31.094 18.01 28.712 19.419 25 21 C23.68 21 22.36 21 21 21 C21 22.98 21 24.96 21 27 C22.98 27 24.96 27 27 27 C27 27.99 27 28.98 27 30 C22.05 30.33 17.1 30.66 12 31 C11.34 29.68 10.68 28.36 10 27 C11.98 26.67 13.96 26.34 16 26 C16 24.68 16 23.36 16 22 C14.824 21.67 13.649 21.34 12.438 21 C6.32 18.718 2.582 13.957 -0.438 8.312 C-1.056 5.771 -1.217 3.606 -1 1 C-0.67 0.67 -0.34 0.34 0 0 Z " fill="#000000" transform="translate(70,66)"/>
<path d="M0 0 C3 1 3 1 4.625 3.375 C7.353 10.568 7.913 17.632 5.086 24.867 C2.768 29.42 -0.189 33.567 -4.207 36.746 C-6.392 39.493 -6.296 41.254 -5.996 44.684 C-5.915 45.366 -5.834 46.047 -5.75 46.75 C-5.684 47.447 -5.619 48.145 -5.551 48.863 C-5.386 50.577 -5.196 52.289 -5 54 C-9.481 53.513 -12.922 52.859 -16.812 50.562 C-17.561 50.131 -18.31 49.699 -19.082 49.254 C-21 48 -21 48 -23 46 C-25.521 45.767 -27.974 45.632 -30.5 45.562 C-39.032 45.179 -46.829 44.02 -54 39 C-53.67 38.01 -53.34 37.02 -53 36 C-52.325 36.205 -51.649 36.41 -50.953 36.621 C-50.061 36.891 -49.169 37.16 -48.25 37.438 C-47.368 37.704 -46.487 37.971 -45.578 38.246 C-44.727 38.495 -43.877 38.744 -43 39 C-42.394 39.202 -41.788 39.405 -41.164 39.613 C-37.19 40.323 -33.039 39.878 -29.02 39.609 C-25.092 39.491 -22.692 39.861 -19.734 42.371 C-18.832 43.239 -17.93 44.106 -17 45 C-14.716 46.47 -12.394 47.707 -10 49 C-10.093 48.071 -10.186 47.141 -10.281 46.184 C-10.865 36.193 -10.865 36.193 -8.324 32.688 C-6.279 31.013 -4.165 29.514 -2 28 C2.042 22.394 2.644 16.763 2 10 C1.198 6.914 0.176 3.962 -1 1 C-0.67 0.67 -0.34 0.34 0 0 Z " fill="#000000" transform="translate(139,76)"/>
</svg>
