<?xml version="1.0" encoding="UTF-8"?>
<!-- Generator: visioncortex VTracer 0.6.4 -->
<svg version="1.1" xmlns="http://www.w3.org/2000/svg" width="176" height="169">
<path d="M0 0 C0.99 0 1.98 0 3 0 C2.979 0.753 2.959 1.506 2.938 2.281 C3.101 10.691 5.133 16.302 9.293 23.529 C10.931 26.444 12.007 28.494 11.961 31.879 C11 34 11 34 7.5 35.438 C5.767 36.211 5.767 36.211 4 37 C2.943 40.084 2.943 40.084 3 43 C0.03 43 -2.94 43 -6 43 C-3.717 45.283 -1.591 47.124 1 49 C0.412 52.025 -0.211 55.021 -1 58 C-1.268 59.176 -1.536 60.351 -1.812 61.562 C-3.101 65.292 -3.674 66.1 -7 68 C-9.612 68.161 -12.056 67.938 -14.66 67.715 C-17.106 67.783 -17.106 67.783 -18.766 69.613 C-20.299 72.579 -20.507 74.925 -20.688 78.25 C-20.753 79.328 -20.819 80.405 -20.887 81.516 C-20.924 82.335 -20.961 83.155 -21 84 C-22.32 84 -23.64 84 -25 84 C-25.081 81.917 -25.139 79.834 -25.188 77.75 C-25.222 76.59 -25.257 75.43 -25.293 74.234 C-24.975 70.726 -24.261 69.588 -22 67 C-22 66.34 -22 65.68 -22 65 C-26.455 63.02 -26.455 63.02 -31 61 C-31 60.01 -31 59.02 -31 58 C-26.58 58.384 -23.137 59.28 -19.062 61.062 C-14.423 63.031 -11.002 63.37 -6 63 C-5.67 58.71 -5.34 54.42 -5 50 C-6.32 49.34 -7.64 48.68 -9 48 C-11.111 45.06 -12 43.654 -12 40 C-9.595 38.797 -8.05 38.899 -5.375 38.938 C-4.149 38.951 -4.149 38.951 -2.898 38.965 C-2.272 38.976 -1.645 38.988 -1 39 C-1 37.35 -1 35.7 -1 34 C1.31 33.01 3.62 32.02 6 31 C5.467 26.428 4.244 23.334 1.938 19.375 C-1.295 13.197 -1.924 7.888 -1 1 C-0.67 0.67 -0.34 0.34 0 0 Z " fill="#000000" transform="translate(72,55)"/>
<path d="M0 0 C1.722 -0.019 1.722 -0.019 3.479 -0.039 C4.72 -0.041 5.96 -0.043 7.239 -0.045 C8.512 -0.052 9.786 -0.059 11.098 -0.066 C13.794 -0.076 16.49 -0.081 19.186 -0.08 C22.637 -0.08 26.088 -0.107 29.539 -0.142 C32.835 -0.169 36.13 -0.168 39.426 -0.17 C41.284 -0.192 41.284 -0.192 43.179 -0.214 C44.906 -0.205 44.906 -0.205 46.668 -0.195 C48.187 -0.2 48.187 -0.2 49.736 -0.204 C53.15 0.43 54.325 1.546 56.399 4.291 C56.809 7.329 56.984 9.998 56.965 13.037 C56.971 13.885 56.977 14.733 56.984 15.607 C56.991 17.398 56.988 19.189 56.975 20.98 C56.961 23.716 56.995 26.448 57.033 29.183 C57.034 30.926 57.033 32.669 57.028 34.412 C57.041 35.226 57.054 36.041 57.068 36.88 C57.001 40.961 56.692 42.86 54.339 46.317 C50.708 48.754 47.94 48.908 43.719 48.751 C42.218 48.748 40.716 48.746 39.215 48.744 C36.869 48.71 34.524 48.666 32.178 48.61 C23.192 48.124 23.192 48.124 14.883 50.784 C13.144 52.529 11.796 54.27 10.399 56.291 C8.483 58.189 6.591 59.696 4.399 61.291 C3.409 60.961 2.419 60.631 1.399 60.291 C1.399 56.331 1.399 52.371 1.399 48.291 C-0.581 48.291 -2.561 48.291 -4.601 48.291 C-7.476 46.103 -7.476 46.103 -9.601 43.291 C-9.914 40.478 -9.914 40.478 -9.601 38.291 C-8.281 38.291 -6.961 38.291 -5.601 38.291 C-5.271 39.941 -4.941 41.591 -4.601 43.291 C-3.644 43.381 -3.644 43.381 -2.668 43.474 C-1.841 43.558 -1.015 43.642 -0.164 43.728 C0.66 43.809 1.484 43.89 2.332 43.974 C4.399 44.291 4.399 44.291 5.399 45.291 C5.853 47.945 6.101 50.612 6.399 53.291 C6.91 52.653 7.422 52.016 7.949 51.359 C12.468 46.479 16.144 43.801 22.761 43.275 C26.694 43.133 30.584 43.161 34.524 43.228 C42.877 43.259 42.877 43.259 51.399 43.291 C51.399 30.751 51.399 18.211 51.399 5.291 C32.589 4.961 13.779 4.631 -5.601 4.291 C-5.601 6.271 -5.601 8.251 -5.601 10.291 C-6.921 9.961 -8.241 9.631 -9.601 9.291 C-9.289 5.916 -9.289 5.916 -8.601 2.291 C-5.205 0.027 -3.987 0.03 0 0 Z " fill="#000000" transform="translate(89.601318359375,56.70947265625)"/>
<path d="M0 0 C3 1 3 1 5 4 C5.99 4 6.98 4 8 4 C8 5.32 8 6.64 8 8 C7.01 8 6.02 8 5 8 C5.66 9.65 6.32 11.3 7 13 C5.68 13.33 4.36 13.66 3 14 C3 13.34 3 12.68 3 12 C1.02 12.66 -0.96 13.32 -3 14 C-3 12.68 -3 11.36 -3 10 C-4.417 8.249 -4.417 8.249 -6 7 C-5.67 6.01 -5.34 5.02 -5 4 C-4.01 4 -3.02 4 -2 4 C-1.34 2.68 -0.68 1.36 0 0 Z " fill="#000000" transform="translate(94,73)"/>
<path d="M0 0 C0.99 0.33 1.98 0.66 3 1 C3.33 1.99 3.66 2.98 4 4 C5.32 4 6.64 4 8 4 C7.67 5.32 7.34 6.64 7 8 C6.34 8 5.68 8 5 8 C5.33 9.65 5.66 11.3 6 13 C4.68 13 3.36 13 2 13 C-0.004 13.308 -2.005 13.637 -4 14 C-3.67 12.02 -3.34 10.04 -3 8 C-3.99 7.67 -4.98 7.34 -6 7 C-6 6.01 -6 5.02 -6 4 C-4.68 4 -3.36 4 -2 4 C-1.34 2.68 -0.68 1.36 0 0 Z " fill="#000000" transform="translate(112,73)"/>
<path d="M0 0 C0.66 0 1.32 0 2 0 C2.248 0.639 2.495 1.279 2.75 1.938 C3.816 4.187 3.816 4.187 6.125 4.75 C6.744 4.832 7.363 4.915 8 5 C7 8 7 8 5 10 C5 11.32 5 12.64 5 14 C2.525 13.01 2.525 13.01 0 12 C-0.33 12.66 -0.66 13.32 -1 14 C-1.99 14 -2.98 14 -4 14 C-3.67 12.02 -3.34 10.04 -3 8 C-4.32 7.67 -5.64 7.34 -7 7 C-6.67 6.01 -6.34 5.02 -6 4 C-4.68 4 -3.36 4 -2 4 C-1.34 2.68 -0.68 1.36 0 0 Z " fill="#000000" transform="translate(130,73)"/>
</svg>
