<?xml version="1.0" encoding="UTF-8"?>
<!-- Generator: visioncortex VTracer 0.6.4 -->
<svg version="1.1" xmlns="http://www.w3.org/2000/svg" width="176" height="169">
<path d="M0 0 C1.005 -0.006 2.009 -0.013 3.045 -0.019 C4.671 -0.021 4.671 -0.021 6.331 -0.023 C7.446 -0.026 8.562 -0.029 9.712 -0.033 C12.074 -0.038 14.436 -0.04 16.798 -0.04 C20.411 -0.042 24.023 -0.06 27.635 -0.079 C29.93 -0.082 32.224 -0.084 34.518 -0.085 C35.598 -0.092 36.679 -0.1 37.792 -0.107 C38.803 -0.104 39.814 -0.101 40.855 -0.098 C41.741 -0.099 42.627 -0.101 43.54 -0.102 C46.437 0.183 48.489 0.767 51.057 2.145 C53.154 5.078 53.321 7.656 53.364 11.202 C53.38 12.206 53.396 13.211 53.412 14.246 C53.417 15.325 53.423 16.404 53.428 17.516 C53.437 18.631 53.446 19.745 53.456 20.894 C53.47 23.25 53.479 25.606 53.483 27.962 C53.495 31.566 53.544 35.168 53.594 38.772 C53.604 41.062 53.611 43.352 53.616 45.641 C53.635 46.719 53.655 47.796 53.675 48.906 C53.63 56.343 53.63 56.343 50.772 60.344 C48.11 62.11 47.149 62.724 44.053 62.466 C43.318 62.438 42.583 62.41 41.825 62.382 C41.056 62.345 40.287 62.308 39.495 62.27 C33.317 62.245 29.368 62.883 24.706 67.09 C23.241 68.585 21.834 70.116 20.44 71.677 C18.057 74.145 18.057 74.145 14.057 75.145 C13.562 68.71 13.562 68.71 13.057 62.145 C11.737 61.815 10.417 61.485 9.057 61.145 C9.387 60.155 9.717 59.165 10.057 58.145 C12.367 58.145 14.677 58.145 17.057 58.145 C17.057 61.445 17.057 64.745 17.057 68.145 C17.841 67.485 18.625 66.825 19.432 66.145 C22.057 64.145 22.057 64.145 24.057 64.145 C24.057 63.485 24.057 62.825 24.057 62.145 C27.022 58.88 29.424 57.873 33.702 57.536 C35.424 57.47 37.147 57.424 38.87 57.395 C40.195 57.351 40.195 57.351 41.547 57.305 C43.717 57.235 45.887 57.188 48.057 57.145 C48.082 49.9 48.1 42.656 48.112 35.411 C48.117 32.944 48.124 30.477 48.133 28.01 C48.145 24.473 48.15 20.936 48.155 17.399 C48.16 16.289 48.165 15.178 48.17 14.034 C48.171 13.013 48.171 11.992 48.171 10.94 C48.173 10.037 48.175 9.133 48.177 8.202 C48.286 6.153 48.286 6.153 47.057 5.145 C45.369 5.052 43.677 5.028 41.987 5.032 C40.906 5.032 39.824 5.032 38.711 5.032 C37.535 5.037 36.359 5.042 35.147 5.048 C33.95 5.049 32.753 5.05 31.519 5.052 C27.678 5.058 23.836 5.07 19.995 5.083 C17.398 5.088 14.801 5.092 12.204 5.096 C5.821 5.107 -0.561 5.125 -6.943 5.145 C-6.943 11.085 -6.943 17.025 -6.943 23.145 C-8.263 23.145 -9.583 23.145 -10.943 23.145 C-11.024 20.228 -11.083 17.313 -11.13 14.395 C-11.156 13.57 -11.181 12.745 -11.207 11.895 C-11.28 5.787 -11.28 5.787 -9.619 2.63 C-6.652 0.002 -3.783 0.016 0 0 Z " fill="#000000" transform="translate(91.94287109375,39.854736328125)"/>
<path d="M0 0 C0.99 0.33 1.98 0.66 3 1 C3 11.89 3 22.78 3 34 C-2.504 32.899 -2.504 32.899 -5.312 30 C-9.099 26.514 -11.929 26.178 -17 26 C-18.996 20.482 -19.454 15.757 -18 10 C-16 8 -16 8 -12.375 7.812 C-7.487 7.376 -5.086 4.81 -1.762 1.398 C-1.18 0.937 -0.599 0.475 0 0 Z M-3 7 C-3.557 7.639 -4.114 8.279 -4.688 8.938 C-7.696 11.621 -10.06 11.628 -14 12 C-15.233 13.008 -15.233 13.008 -15.098 15.066 C-15.086 15.89 -15.074 16.714 -15.062 17.562 C-15.053 18.389 -15.044 19.215 -15.035 20.066 C-15.024 20.704 -15.012 21.343 -15 22 C-13.948 22.082 -12.896 22.165 -11.812 22.25 C-7.697 23.06 -6.079 24.273 -3 27 C-2.34 27 -1.68 27 -1 27 C-1 20.4 -1 13.8 -1 7 C-1.66 7 -2.32 7 -3 7 Z " fill="#000000" transform="translate(113,54)"/>
<path d="M0 0 C1.828 0.215 1.828 0.215 4 1 C8.118 6.559 9.972 12.199 9 19 C7.566 23.143 6.125 26.875 3 30 C0.875 29.625 0.875 29.625 -1 29 C-0.639 28.371 -0.278 27.742 0.094 27.094 C3.192 21.378 4.867 17.504 4 11 C2.625 7.833 2.625 7.833 1 5 C0.312 2.125 0.312 2.125 0 0 Z " fill="#000000" transform="translate(127,57)"/>
<path d="M0 0 C5.968 4.579 10.027 10.057 11.812 17.391 C12.06 19.309 12.06 19.309 12.312 21.266 C12.56 22.812 12.56 22.812 12.812 24.391 C13.803 25.051 14.792 25.711 15.812 26.391 C16.144 29.134 16.277 31.587 16.25 34.328 C16.28 35.422 16.28 35.422 16.311 36.537 C16.309 38.668 16.309 38.668 15.812 42.391 C13.867 44.188 13.867 44.188 11.812 45.391 C11.132 47.108 10.453 48.826 9.793 50.551 C8.282 53.387 6.035 55.077 3.531 57.031 C1.825 58.381 0.322 59.826 -1.188 61.391 C3.944 64.227 9.198 65.826 14.812 67.391 C14.812 68.711 14.812 70.031 14.812 71.391 C-2.047 68.003 -2.047 68.003 -5 63.828 C-5.392 63.024 -5.784 62.219 -6.188 61.391 C-8.255 60.063 -8.255 60.063 -10.188 59.391 C-10.188 57.411 -10.188 55.431 -10.188 53.391 C-8.868 53.391 -7.547 53.391 -6.188 53.391 C-6.188 54.381 -6.188 55.371 -6.188 56.391 C0.636 54.083 0.636 54.083 5.312 48.891 C6.891 45.228 6.891 45.228 7.812 41.391 C9.793 40.896 9.793 40.896 11.812 40.391 C11.812 36.431 11.812 32.471 11.812 28.391 C10.493 27.731 9.172 27.071 7.812 26.391 C7.195 23.633 7.195 23.633 6.938 20.266 C6.126 13.829 4.549 9.852 -0.188 5.391 C-5.482 1.357 -11.802 1.716 -18.188 2.391 C-21.658 3.663 -21.658 3.663 -24.188 5.391 C-25.177 5.721 -26.168 6.051 -27.188 6.391 C-28.33 8.173 -28.33 8.173 -29.188 10.391 C-29.529 11.146 -29.871 11.901 -30.223 12.68 C-31.55 16.41 -31.53 19.938 -31.648 23.867 C-32.339 27.102 -33.606 27.482 -36.188 29.391 C-36.953 32.761 -36.766 35.992 -36.188 39.391 C-34.396 42.026 -34.396 42.026 -32.188 43.391 C-32.517 44.051 -32.847 44.711 -33.188 45.391 C-38.937 43.641 -38.937 43.641 -41.188 41.391 C-41.523 38.238 -41.523 38.238 -41.562 34.453 C-41.591 33.207 -41.619 31.96 -41.648 30.676 C-41.188 27.391 -41.188 27.391 -39.223 25.805 C-38.551 25.338 -37.879 24.871 -37.188 24.391 C-36.455 21.709 -36.455 21.709 -36.25 18.703 C-35.268 11.578 -32.941 7.072 -27.812 2.078 C-19.37 -3.349 -9.118 -5.395 0 0 Z " fill="#000000" transform="translate(80.1875,67.609375)"/>
<path d="M0 0 C1.875 0.312 1.875 0.312 4 1 C6.325 4.488 6.335 5.901 6 10 C5 12.375 5 12.375 4 14 C2.68 14 1.36 14 0 14 C0.084 13.325 0.168 12.649 0.254 11.953 C0.356 11.061 0.458 10.169 0.562 9.25 C0.667 8.368 0.771 7.487 0.879 6.578 C0.995 4.116 0.736 2.335 0 0 Z " fill="#000000" transform="translate(121,65)"/>
<path d="M0 0 C0.99 0.33 1.98 0.66 3 1 C3.557 2.33 3.557 2.33 4.125 3.688 C8.823 11.988 18.318 14.503 27 17 C26.505 18.485 26.505 18.485 26 20 C25.775 22.226 25.592 24.456 25.438 26.688 C25.354 27.867 25.27 29.046 25.184 30.262 C25.093 31.617 25.093 31.617 25 33 C24.01 33 23.02 33 22 33 C20.189 31.189 20.618 28.387 20.438 25.938 C20.354 24.833 20.27 23.728 20.184 22.59 C20.123 21.735 20.062 20.881 20 20 C19.348 19.769 18.695 19.539 18.023 19.301 C10.012 16.311 10.012 16.311 6.688 13.188 C4.238 10.737 4.238 10.737 1.375 10.938 C-1.571 12.255 -2.992 13.455 -5 16 C-6.29 24.231 -5.806 32.058 -1 39 C1.4 41.255 2.858 41.953 6 43 C6 44.32 6 45.64 6 47 C4.35 46.67 2.7 46.34 1 46 C0.918 47.093 0.835 48.186 0.75 49.312 C0 53 0 53 -1.672 54.594 C-4.377 56.228 -6.996 57.207 -10 58.188 C-11.031 58.532 -12.062 58.876 -13.125 59.23 C-16 60 -16 60 -20 60 C-19.973 58.172 -19.973 58.172 -19 56 C-16.435 54.873 -14.105 54.023 -11.438 53.25 C-10.727 53.03 -10.016 52.809 -9.283 52.582 C-7.527 52.04 -5.764 51.518 -4 51 C-3.67 48.03 -3.34 45.06 -3 42 C-3.66 42 -4.32 42 -5 42 C-10.162 33.507 -10.842 25.967 -10 16 C-8.734 12.228 -6.763 10.416 -3.25 8.5 C-2.508 8.005 -1.765 7.51 -1 7 C-0.666 3.916 -0.666 3.916 -1 1 C-0.67 0.67 -0.34 0.34 0 0 Z " fill="#000000" transform="translate(60,79)"/>
</svg>
