<?xml version="1.0" encoding="UTF-8"?>
<!-- Generator: visioncortex VTracer 0.6.4 -->
<svg version="1.1" xmlns="http://www.w3.org/2000/svg" width="176" height="169">
<path d="M0 0 C9.156 7.479 13.418 16.144 14.844 27.828 C15.354 38.185 11.18 46.273 4.812 54.188 C-3.086 62.768 -15.416 68.215 -27 69 C-28.075 68.947 -29.15 68.894 -30.258 68.84 C-37.398 68.544 -41.567 68.446 -46.926 73.328 C-50.968 76.586 -56.049 78.526 -61 80 C-62.485 79.505 -62.485 79.505 -64 79 C-63.34 72.07 -62.68 65.14 -62 58 C-63.32 57.34 -64.64 56.68 -66 56 C-72.921 49.929 -76.872 41.136 -78.062 32.125 C-78.467 22.957 -75.697 13.883 -69.75 6.836 C-51.073 -12.758 -22.311 -16.504 0 0 Z M-66.375 8.375 C-72.089 15.562 -74.597 23.893 -74 33 C-72.689 39.073 -70.817 44.027 -67 49 C-66.34 49.887 -65.68 50.774 -65 51.688 C-63.192 54.064 -63.192 54.064 -60.891 55.102 C-58.654 57.347 -58.705 57.948 -58.609 61.012 C-58.636 62.571 -58.684 64.13 -58.75 65.688 C-58.768 66.485 -58.786 67.282 -58.805 68.104 C-58.852 70.07 -58.924 72.035 -59 74 C-54.745 73.508 -52.134 72.774 -48.812 70.062 C-48.159 69.538 -47.505 69.013 -46.832 68.473 C-46.227 67.987 -45.623 67.501 -45 67 C-41.225 64.483 -38.404 64.899 -34.062 65.062 C-20.926 65.277 -10.188 62.389 -0.188 53.5 C0.534 52.675 1.256 51.85 2 51 C2.866 50.072 3.733 49.144 4.625 48.188 C9.581 41.536 11.173 34.265 11 26 C9.543 16.551 4.442 8.273 -3.02 2.344 C-22.739 -11.036 -49.834 -9.404 -66.375 8.375 Z " fill="#000000" transform="translate(123,55)"/>
<path d="M0 0 C2.977 1.773 5.428 3.856 7 7 C7.322 10.743 7.324 14.495 7.375 18.25 C7.412 19.288 7.45 20.325 7.488 21.395 C7.587 30.002 7.587 30.002 4.727 33.668 C1.503 36.425 0.001 36.957 -4.074 37.172 C-7.909 36.83 -10.1 34.992 -12.607 32.228 C-15.262 27.981 -14.512 22.935 -14.5 18.062 C-14.528 16.978 -14.557 15.893 -14.586 14.775 C-14.606 6.803 -14.606 6.803 -11.594 2.809 C-7.463 -0.072 -5.092 -0.509 0 0 Z M-8.676 5.27 C-12.485 10.247 -11.419 20.003 -11 26 C-9.922 29.981 -9.498 30.668 -6 33 C-0.96 32.768 -0.96 32.768 3 30 C4.445 25.366 4.003 20.657 3.75 15.875 C3.723 15.064 3.696 14.253 3.668 13.418 C3.628 12.638 3.588 11.858 3.547 11.055 C3.514 10.348 3.482 9.642 3.448 8.914 C2.869 6.443 2.014 5.518 0 4 C-4.623 3.396 -4.623 3.396 -8.676 5.27 Z " fill="#000000" transform="translate(95,56)"/>
<path d="M0 0 C0.99 0.33 1.98 0.66 3 1 C3.463 2.951 3.922 4.904 4.348 6.863 C5.675 11.21 8.443 14.098 12.375 16.375 C17.036 17.485 20.676 17.493 25.188 15.812 C31.343 11.846 33.059 6.749 35 0 C35.99 0.33 36.98 0.66 38 1 C37.732 7.033 37.151 11.317 33 16 C29.229 18.857 25.663 21.032 21 22 C21 23.32 21 24.64 21 26 C22.98 26.33 24.96 26.66 27 27 C27 27.99 27 28.98 27 30 C13.726 31.863 13.726 31.863 10 30 C10 29.01 10 28.02 10 27 C11.98 26.67 13.96 26.34 16 26 C16 24.35 16 22.7 16 21 C14.732 20.907 14.732 20.907 13.438 20.812 C8.37 19.615 4.692 17.412 1.668 13.102 C-0.544 9.022 -1.575 5.717 -1 1 C-0.67 0.67 -0.34 0.34 0 0 Z " fill="#000000" transform="translate(73,80)"/>
</svg>
