<?xml version="1.0" encoding="UTF-8"?>
<!-- Generator: visioncortex VTracer 0.6.4 -->
<svg version="1.1" xmlns="http://www.w3.org/2000/svg" width="176" height="169">
<path d="M0 0 C0.99 0.66 1.98 1.32 3 2 C3.381 4.008 3.76 6.017 4.133 8.027 C5.506 12.733 7.848 16.935 10.169 21.239 C12.254 25.18 13.544 28.488 14 33 C12.733 33.674 11.461 34.339 10.188 35 C9.48 35.371 8.772 35.742 8.043 36.125 C6 37 6 37 3 37 C3.021 38.114 3.041 39.227 3.062 40.375 C3 44 3 44 2 46 C-2.62 46 -7.24 46 -12 46 C-8.389 49.665 -8.389 49.665 -4.312 51.938 C-1 54 -1 54 -0.062 56.75 C-0.042 57.493 -0.021 58.235 0 59 C-0.99 59.66 -1.98 60.32 -3 61 C-3.434 63.493 -3.434 63.493 -3.438 66.312 C-3.75 71.085 -4.281 73.706 -8 77 C-10.836 79.228 -12.119 78.99 -15.812 78.688 C-18.513 78.302 -20.916 77.743 -23.562 77 C-27.306 77 -28.073 77.285 -30.875 79.562 C-35.59 84.731 -35.065 91.352 -35 98 C-36.32 98 -37.64 98 -39 98 C-40.076 85.84 -40.076 85.84 -37.477 81.395 C-35.562 79.312 -35.562 79.312 -33.629 77.551 C-31.737 75.992 -31.737 75.992 -31 73 C-31.701 72.88 -32.403 72.76 -33.125 72.637 C-39.368 71.254 -46.681 68.995 -51.188 64.25 C-53.474 60.151 -53.887 56.638 -54 52 C-52.68 52 -51.36 52 -50 52 C-49.609 53.953 -49.219 55.906 -48.828 57.859 C-47.367 61.637 -44.825 63.588 -41.254 65.372 C-40.224 65.77 -39.194 66.168 -38.133 66.578 C-37 67.016 -35.867 67.455 -34.699 67.906 C-32.93 68.571 -32.93 68.571 -31.125 69.25 C-29.953 69.709 -28.781 70.168 -27.574 70.641 C-18.477 74.206 -18.477 74.206 -9 73 C-8.951 72.108 -8.902 71.216 -8.852 70.297 C-8.777 69.126 -8.702 67.956 -8.625 66.75 C-8.555 65.59 -8.486 64.43 -8.414 63.234 C-8.038 60.293 -7.523 58.501 -6 56 C-6.638 55.662 -7.276 55.325 -7.934 54.977 C-8.76 54.531 -9.586 54.085 -10.438 53.625 C-11.673 52.964 -11.673 52.964 -12.934 52.289 C-15 51 -15 51 -16 49 C-16.04 47 -16.043 45 -16 43 C-13.116 41.558 -10.583 41.906 -7.375 41.938 C-6.186 41.947 -4.998 41.956 -3.773 41.965 C-2.858 41.976 -1.943 41.988 -1 42 C-1 39.36 -1 36.72 -1 34 C0.457 33.496 1.916 32.997 3.375 32.5 C4.187 32.222 4.999 31.943 5.836 31.656 C8 31 8 31 10 31 C9.702 30.44 9.405 29.88 9.098 29.303 C7.75 26.766 6.406 24.227 5.062 21.688 C4.594 20.806 4.125 19.925 3.643 19.018 C3.195 18.17 2.747 17.322 2.285 16.449 C1.871 15.669 1.458 14.889 1.031 14.085 C-1.229 9.515 -1.161 5.999 -1 1 C-0.67 0.67 -0.34 0.34 0 0 Z " fill="#000000" transform="translate(100,23)"/>
<path d="M0 0 C3 1 3 1 4.625 4 C7.988 12.719 7.17 20.576 3.75 29.125 C0.858 33.877 -2.356 37.904 -7 41 C-7.99 41 -8.98 41 -10 41 C-10 37 -10 37 -8.355 35.289 C-7.64 34.74 -6.925 34.191 -6.188 33.625 C-1.001 29.282 0.944 25.575 1.875 18.875 C2.286 13.337 1.171 8.624 -0.406 3.336 C-0.602 2.565 -0.798 1.794 -1 1 C-0.67 0.67 -0.34 0.34 0 0 Z " fill="#000000" transform="translate(131,60)"/>
<path d="M0 0 C0.99 0 1.98 0 3 0 C5.858 5.717 7.365 10.837 5.309 17.109 C3.099 22.028 0.334 24.848 -4 28 C-4.66 27.67 -5.32 27.34 -6 27 C-5.45 23.152 -3.73 21.647 -1 19 C2.304 14.374 1.248 8.344 0.5 3 C0.335 2.01 0.17 1.02 0 0 Z " fill="#000000" transform="translate(122,65)"/>
<path d="M0 0 C1.32 0.66 2.64 1.32 4 2 C4.323 6.121 4.39 8.368 2.188 11.938 C0 14 0 14 -3 14 C-2.125 10.125 -2.125 10.125 -1 9 C-1 7.68 -1 6.36 -1 5 C-1 1 -1 1 0 0 Z " fill="#000000" transform="translate(114,70)"/>
</svg>
