<?xml version="1.0" encoding="UTF-8"?>
<!-- Generator: visioncortex VTracer 0.6.4 -->
<svg version="1.1" xmlns="http://www.w3.org/2000/svg" width="176" height="169">
<path d="M0 0 C3 1 3 1 4.227 2.87 C4.617 3.671 5.008 4.472 5.41 5.297 C6.059 6.612 6.059 6.612 6.721 7.953 C7.163 8.876 7.606 9.799 8.062 10.75 C8.509 11.657 8.956 12.565 9.416 13.5 C11.431 17.619 13.333 21.726 15 26 C11.117 29.648 8.288 30.585 3 31 C3 33.64 3 36.28 3 39 C-3.481 41.504 -9.185 40.828 -16 40 C-16 39.01 -16 38.02 -16 37 C-11.05 37 -6.1 37 -1 37 C-1 34.36 -1 31.72 -1 29 C2.3 27.68 5.6 26.36 9 25 C7.745 21.863 6.588 19.084 5.02 16.152 C4.661 15.465 4.302 14.777 3.932 14.068 C3.181 12.64 2.423 11.215 1.658 9.795 C1.303 9.108 0.948 8.422 0.582 7.715 C0.254 7.097 -0.073 6.48 -0.411 5.844 C-1.143 3.552 -0.761 2.245 0 0 Z " fill="#000000" transform="translate(95,22)"/>
<path d="M0 0 C3 2 3 2 3.432 4.063 C3.459 4.89 3.485 5.718 3.512 6.57 C3.547 7.466 3.583 8.362 3.619 9.285 C3.642 10.222 3.664 11.159 3.688 12.125 C3.739 13.542 3.739 13.542 3.791 14.988 C3.874 17.325 3.943 19.662 4 22 C4.891 21.973 5.781 21.946 6.699 21.918 C9.737 21.993 11.952 22.362 14.812 23.312 C15.582 23.556 16.352 23.8 17.145 24.051 C19 25 19 25 20 28 C21.093 28.082 22.186 28.165 23.312 28.25 C27 29 27 29 28.706 30.703 C30.28 33.498 30.387 35.303 30.398 38.5 C30.404 40.078 30.404 40.078 30.41 41.688 C30.399 42.781 30.387 43.874 30.375 45 C30.387 46.093 30.398 47.186 30.41 48.312 C30.406 49.364 30.402 50.416 30.398 51.5 C30.395 52.459 30.392 53.418 30.388 54.406 C29.938 57.414 28.944 58.712 27 61 C26.233 63.113 26.233 63.113 25.812 65.25 C25.544 66.487 25.276 67.725 25 69 C24.01 69 23.02 69 22 69 C21.919 67.563 21.861 66.126 21.812 64.688 C21.76 63.487 21.76 63.487 21.707 62.262 C22 60 22 60 23.5 58.705 C25.623 56.292 25.343 54.632 25.293 51.457 C25.283 50.384 25.274 49.311 25.264 48.205 C25.239 47.086 25.213 45.966 25.188 44.812 C25.174 43.681 25.16 42.55 25.146 41.385 C25.111 38.589 25.062 35.795 25 33 C23.68 32.67 22.36 32.34 21 32 C21 33.98 21 35.96 21 38 C19.68 37.67 18.36 37.34 17 37 C17 34.03 17 31.06 17 28 C15.68 28 14.36 28 13 28 C12.67 30.64 12.34 33.28 12 36 C11.01 36 10.02 36 9 36 C8.34 32.7 7.68 29.4 7 26 C6.01 26 5.02 26 4 26 C4.021 26.949 4.041 27.898 4.062 28.875 C4 32 4 32 3 34 C2.01 34 1.02 34 0 34 C-0.33 24.43 -0.66 14.86 -1 5 C-1.99 4.67 -2.98 4.34 -4 4 C-4.33 16.54 -4.66 29.08 -5 42 C-6.32 42 -7.64 42 -9 42 C-9.074 36.501 -9.129 31.002 -9.165 25.502 C-9.18 23.631 -9.2 21.76 -9.226 19.889 C-9.263 17.201 -9.28 14.513 -9.293 11.824 C-9.308 10.987 -9.324 10.149 -9.34 9.286 C-9.342 3.442 -9.342 3.442 -7.666 1.274 C-5.123 -0.671 -3.104 -0.323 0 0 Z " fill="#000000" transform="translate(112,57)"/>
<path d="M0 0 C0.99 0.33 1.98 0.66 3 1 C3.838 3.227 4.331 5.456 4.863 7.773 C7.235 12.418 12.741 13.292 17.406 14.824 C19.436 15.451 21.467 16.072 23.5 16.688 C24.52 17.008 25.539 17.328 26.59 17.658 C33.659 19.907 33.659 19.907 41 20 C44.15 18.367 44.15 18.367 44.625 15.812 C44.902 13.733 45.147 11.648 45.375 9.562 C46.02 5.884 47.182 3.241 49 0 C49.99 0.33 50.98 0.66 52 1 C52.875 2.812 52.875 2.812 53 5 C52.546 5.557 52.093 6.114 51.625 6.688 C49.807 9.275 49.79 10.298 49.625 13.375 C49.177 18.503 47.945 20.643 44 24 C39.411 25.204 36.35 25.233 31.812 24 C27.277 22.728 27.277 22.728 23 24 C20.057 25.902 18.474 27.813 17 31 C15.989 36.6 16.013 42.326 16 48 C14.68 47.67 13.36 47.34 12 47 C10.923 31.962 10.923 31.962 13.559 27.16 C15.5 25.062 15.5 25.062 17.469 23.348 C17.974 22.903 18.479 22.458 19 22 C19 21.34 19 20.68 19 20 C18.203 19.769 17.407 19.539 16.586 19.301 C5.393 15.856 5.393 15.856 1 11 C-0.943 6.944 -1.268 4.312 0 0 Z " fill="#000000" transform="translate(42,65)"/>
<path d="M0 0 C0.33 0.99 0.66 1.98 1 3 C0.34 3.66 -0.32 4.32 -1 5 C-1.846 12.107 -2.695 19.871 1.875 25.812 C2.898 26.893 3.938 27.958 5 29 C7 32 7 32 6.625 35.188 C6.419 36.116 6.213 37.044 6 38 C5.01 38 4.02 38 3 38 C2.66 36.453 2.66 36.453 2.312 34.875 C1.121 30.633 -1.095 28.268 -4 25 C-6.503 21.289 -6.367 17.391 -6.375 13.062 C-6.399 12.359 -6.424 11.656 -6.449 10.932 C-6.47 7.219 -6.101 5.159 -4.102 1.996 C-2 0 -2 0 0 0 Z " fill="#000000" transform="translate(100,88)"/>
</svg>
